<svg width="2" height="375" viewBox="0 0 2 375" fill="none" xmlns="http://www.w3.org/2000/svg">
<path fill-rule="evenodd" clip-rule="evenodd" d="M0.5 6.69643L0.5 0L1.5 -4.37114e-08L1.5 6.69643L0.5 6.69643ZM0.500001 33.4821L0.500001 20.0893L1.5 20.0893L1.5 33.4821L0.500001 33.4821ZM0.500003 60.2679L0.500002 46.875L1.5 46.875L1.5 60.2679L0.500003 60.2679ZM0.500004 87.0536L0.500003 73.6607L1.5 73.6607L1.5 87.0536L0.500004 87.0536ZM0.500005 113.839L0.500004 100.446L1.5 100.446L1.5 113.839L0.500005 113.839ZM0.500006 140.625L0.500006 127.232L1.50001 127.232L1.50001 140.625L0.500006 140.625ZM0.500007 167.411L0.500007 154.018L1.50001 154.018L1.50001 167.411L0.500007 167.411ZM0.500008 194.196L0.500008 180.804L1.50001 180.804L1.50001 194.196L0.500008 194.196ZM0.50001 220.982L0.500009 207.589L1.50001 207.589L1.50001 220.982L0.50001 220.982ZM0.500011 247.768L0.50001 234.375L1.50001 234.375L1.50001 247.768L0.500011 247.768ZM0.500012 274.554L0.500011 261.161L1.50001 261.161L1.50001 274.554L0.500012 274.554ZM0.500013 301.339L0.500013 287.946L1.50001 287.946L1.50001 301.339L0.500013 301.339ZM0.500014 328.125L0.500014 314.732L1.50001 314.732L1.50001 328.125L0.500014 328.125ZM0.500016 354.911L0.500015 341.518L1.50001 341.518L1.50002 354.911L0.500016 354.911ZM0.500016 375L0.500016 368.304L1.50002 368.304L1.50002 375L0.500016 375Z" fill="white" fill-opacity="0.12"/>
</svg>
