<svg width="24" height="24" viewBox="0 0 24 24" fill="none" xmlns="http://www.w3.org/2000/svg">
<path fill-rule="evenodd" clip-rule="evenodd" d="M16.3902 15.9103C15.7889 16.0752 15.155 16.1633 14.5 16.1633C10.634 16.1633 7.5 13.0932 7.5 9.30612C7.5 8.89097 7.53765 8.48444 7.6098 8.08967C8.2111 7.92485 8.84505 7.83673 9.5 7.83673C13.366 7.83673 16.5 10.9068 16.5 14.6939C16.5 15.109 16.4623 15.5156 16.3902 15.9103ZM18.9991 14.5596C18.9257 9.48186 14.701 5.38776 9.5 5.38776C9.242 5.38776 8.98635 5.39784 8.73355 5.41758C9.99615 3.62431 12.108 2.44898 14.5 2.44898C18.366 2.44898 21.5 5.51902 21.5 9.30612C21.5 11.4151 20.528 13.3017 18.9991 14.5596ZM18.4714 17.7625C21.7348 16.2894 24 13.0569 24 9.30612C24 4.16649 19.7467 0 14.5 0C10.3509 0 6.82305 2.60556 5.5286 6.23745C2.2652 7.71056 0 10.9431 0 14.6939C0 19.8335 4.25329 24 9.5 24C13.6491 24 17.1769 21.3944 18.4714 17.7625ZM15.2664 18.5824C15.0136 18.6022 14.758 18.6122 14.5 18.6122C9.29905 18.6122 5.0743 14.5181 5.00095 9.44038C3.47193 10.6983 2.5 12.5849 2.5 14.6939C2.5 18.481 5.634 21.551 9.5 21.551C11.892 21.551 14.0038 20.3757 15.2664 18.5824Z" fill="#7C7F98"/>
</svg>
