<svg width="18" height="24" viewBox="0 0 18 24" fill="none" xmlns="http://www.w3.org/2000/svg">
<path d="M16.3675 0C15.8842 0 15.5011 0.160389 15.1828 0.451703C14.8645 0.778498 14.6995 1.16484 14.6995 1.6819V13.2957H14.67C14.67 13.3313 14.67 13.361 14.6995 13.3907V14.2644C14.6995 16.4634 14.6346 17.8841 12.7427 19.6969C12.5186 19.893 12.2594 20.0536 12.0059 20.214C11.11 20.7609 10.1494 21.0223 9.05905 21.0223C7.96875 21.0223 6.97844 20.7609 6.11221 20.214C5.21634 19.6672 4.54434 18.9182 4.0316 17.9791C3.51885 17.04 3.26536 15.9762 3.26536 14.8112C3.26536 13.6463 3.51885 12.5763 4.0316 11.6432C4.54434 10.7099 5.25153 9.96111 6.11221 9.44405C6.91383 8.95666 7.78007 8.70103 8.70556 8.63568L7.55024 9.80052C6.94326 10.4128 6.94326 11.4469 7.55024 12.0947C8.15743 12.707 9.18292 12.707 9.82529 12.0947L13.6034 8.279C14.2106 7.6667 14.2106 6.62656 13.6034 5.9848L9.7899 2.16909C9.18271 1.55679 8.15722 1.55679 7.51485 2.16909C6.90766 2.78139 6.90766 3.82153 7.51485 4.46329L8.73478 5.6937H8.38108C6.81322 5.6937 5.40461 6.07983 4.11986 6.88841C2.84088 7.69679 1.84481 8.76639 1.108 10.1871C0.35349 11.5482 0 13.0994 0 14.8172C0 16.535 0.383119 18.0862 1.18475 19.5066C1.98637 20.8974 3.04129 21.9971 4.4499 22.8053C5.82908 23.6137 7.36753 24 9.02942 24C10.6975 24 12.2298 23.6137 13.5795 22.8053C14.9587 21.9969 16.0136 20.8974 16.8153 19.5066C17.6169 18.1158 18 16.5646 18 14.8172V1.6819C18 1.16484 17.841 0.778498 17.5521 0.451703C17.2636 0.160597 16.8451 0 16.3675 0Z" fill="#7C7F98"/>
</svg>
