<svg width="63" height="60" viewBox="0 0 63 60" fill="none" xmlns="http://www.w3.org/2000/svg">
<path fill-rule="evenodd" clip-rule="evenodd" d="M62.9047 10.8629C62.9047 10.3093 62.5578 9.81014 62.0257 9.59827C61.4934 9.3864 60.8809 9.50352 60.4736 9.89501L40.1376 29.4415C39.5815 29.9761 39.5815 30.8428 40.1376 31.3774L60.0564 50.523V55.2145L33.7654 29.944L62.4874 2.33705C62.8947 1.94556 63.0165 1.35678 62.7961 0.845268C62.5756 0.333757 62.0563 0.000241727 61.4804 0.000241727H52.5712C52.1936 0.000241727 51.8313 0.144461 51.5643 0.401175L32.2353 18.9798L15.3375 2.73799H21.5742L31.2282 12.0172C31.7844 12.5518 32.6861 12.5518 33.2424 12.0172L43.3135 2.33705C43.8696 1.80247 43.8696 0.935752 43.3135 0.401175C42.7573 -0.133402 41.8556 -0.133402 41.2994 0.401175L32.2353 9.11342L23.1711 0.401175C22.9041 0.144461 22.5418 0.000241727 22.1642 0.000241727H11.8994C11.3233 0.000241727 10.804 0.333757 10.5836 0.845268C10.3631 1.35678 10.485 1.94556 10.8923 2.33705L31.2282 21.8836C31.7844 22.4181 32.6861 22.4181 33.2424 21.8836L53.1612 2.73799H58.0421L31.7514 28.0082L3.02917 0.400973C2.62187 0.00947867 2.00932 -0.107636 1.47714 0.104239C0.944973 0.316114 0.597986 0.815255 0.597986 1.36891V10.8629C0.597986 11.226 0.748032 11.5742 1.01512 11.8309L20.3441 30.4095L3.4463 46.6513V40.6567L13.1003 31.3774C13.6565 30.8428 13.6565 29.9761 13.1003 29.4415L3.02917 19.7614C2.47301 19.2268 1.57128 19.2268 1.01511 19.7614C0.458945 20.2959 0.458945 21.1626 1.01511 21.6972L10.0792 30.4095L1.01511 39.1217C0.748031 39.3784 0.597985 39.7266 0.597985 40.0897L0.597983 49.956C0.597983 50.5096 0.944971 51.0089 1.47714 51.2207C2.00932 51.4325 2.62187 51.3155 3.02917 50.924L23.3651 31.3774C23.9213 30.8428 23.9213 29.9761 23.3651 29.4415L3.4463 10.2959V4.67365L29.7373 29.944L1.01482 57.5515C0.607517 57.943 0.485673 58.5319 0.706105 59.0433C0.926538 59.5548 1.44584 59.8884 2.02186 59.8884H11.8994C12.277 59.8884 12.6393 59.7441 12.9063 59.4874L32.2353 40.9089L49.1331 57.1507H42.8963L33.2424 47.8714C32.6861 47.3368 31.7844 47.3368 31.2282 47.8714L21.1571 57.5515C20.601 58.0861 20.601 58.9528 21.1571 59.4874C21.7133 60.0219 22.615 60.0219 23.1711 59.4874L32.2353 50.7752L41.2994 59.4874C41.5665 59.7441 41.9288 59.8884 42.3064 59.8884H52.5712C53.1473 59.8884 53.6666 59.5548 53.887 59.0433C54.1075 58.5319 53.9856 57.943 53.5783 57.5515L33.2424 38.005C32.6861 37.4704 31.7844 37.4704 31.2282 38.005L11.3094 57.1507H5.46007L31.7514 31.88L60.4736 59.4872C60.8809 59.8787 61.4934 59.9958 62.0257 59.784C62.5578 59.572 62.9047 59.0729 62.9047 58.5193V49.956C62.9047 49.593 62.7547 49.2448 62.4877 48.988L43.1587 30.4095L60.0564 14.1677V20.1623L50.4025 29.4415C49.8462 29.9761 49.8462 30.8428 50.4025 31.3774L60.4736 41.0577C61.0298 41.5922 61.9315 41.5922 62.4877 41.0577C63.0438 40.523 63.0438 39.6563 62.4877 39.1217L53.4236 30.4095L62.4877 21.6972C62.7547 21.4405 62.9047 21.0923 62.9047 20.7293V10.8629Z" fill="#32323E"/>
</svg>
