<svg width="26" height="25" viewBox="0 0 26 25" fill="none" xmlns="http://www.w3.org/2000/svg">
<path d="M11.617 6.76805V8.75L13.8298 7.5V4.91359C13.8298 4.57736 13.6608 4.26364 13.3801 4.07862L7.72037 0.348564C7.39745 0.135739 6.98075 0.128202 6.65035 0.329209L0.480264 4.08283C0.182034 4.26426 0 4.58807 0 4.93715V12.6023C0 12.9298 0.160304 13.2365 0.429149 13.4234L6.66411 17.7583C6.98541 17.9817 7.40749 17.9972 7.74426 17.7979L18.3109 11.5445C18.6187 11.3623 19.0005 11.3585 19.312 11.5344L22.7259 13.4629C23.0399 13.6403 23.234 13.973 23.234 14.3336V18.7914C23.234 19.152 23.0399 19.4847 22.7259 19.6621L19.3004 21.5972C18.9951 21.7696 18.6219 21.7696 18.3167 21.5972L14.8911 19.6621C14.5771 19.4847 14.383 19.152 14.383 18.7914V16.875L12.1702 18.125V20.0864C12.1702 20.4226 12.3392 20.7364 12.6199 20.9214L18.2796 24.6514C18.6026 24.8643 19.0192 24.8718 19.3497 24.6708L25.5197 20.9172C25.818 20.7357 26 20.4119 26 20.0628V12.4372C26 12.0881 25.818 11.7643 25.5197 11.5828L19.3211 7.81187C19.0056 7.61991 18.61 7.6175 18.2921 7.80561L7.7487 14.0452C7.40966 14.2459 6.9844 14.2288 6.66258 14.0015L3.18914 11.5488C2.92377 11.3614 2.76596 11.0568 2.76596 10.7319V6.76805C2.76596 6.44319 2.92377 6.13857 3.18914 5.95118L6.61467 3.53231C6.96046 3.28814 7.42252 3.28814 7.76831 3.53231L11.1938 5.95118C11.4592 6.13857 11.617 6.44319 11.617 6.76805Z" fill="#7C7F98"/>
</svg>
