<svg width="25" height="25" viewBox="0 0 25 25" fill="none" xmlns="http://www.w3.org/2000/svg">
<path d="M11.1405 19.6421C10.0276 19.8827 9.07816 19.6972 8.18193 19.2402C6.23483 18.2477 5.15712 16.5795 4.67825 14.5096C3.61788 9.92656 6.07545 3.61661 11.4733 1.58804C15.4197 0.10509 19.8581 1.50419 22.5392 5.05609C28.1683 12.5136 23.5955 23.5042 14.3334 24.7677C13.67 24.8582 12.9971 24.8815 12.3006 24.7815C12.4258 24.7446 12.5505 24.7062 12.6764 24.6715C17.4267 23.3636 20.088 20.0846 21.2311 15.4581C21.8458 12.9699 21.7776 10.4803 20.5648 8.14123C19.3654 5.82809 17.5673 4.28433 14.8572 4.19121C12.7484 4.11876 11.0811 5.1093 9.78008 6.72146C6.86074 10.3389 7.30375 16.0671 10.7286 19.2088C10.8519 19.3219 10.9602 19.4513 11.1405 19.6421Z" fill="#7C7F98"/>
<path d="M12.7021 0.185991C10.4514 0.666768 8.47748 1.68747 6.97529 3.41413C3.76473 7.10428 2.46231 11.3104 4.15002 16.0661C5.03722 18.5662 6.80783 20.2881 9.5749 20.7012C11.1013 20.929 12.4893 20.5097 13.7275 19.6325C15.6597 18.2636 16.7053 16.3257 17.0369 14.0264C17.5158 10.7063 16.6462 7.81784 14.0772 5.5408C14.0306 5.49971 14.0074 5.43225 13.9335 5.31253C14.7245 5.06217 15.4644 5.17713 16.178 5.4313C18.4151 6.22871 19.6463 7.93019 20.262 10.1317C21.6432 15.0725 18.5821 22.4214 12.2161 23.711C8.17295 24.53 4.90349 23.0459 2.47799 19.8432C-3.18301 12.3686 1.39957 1.48366 10.7129 0.166276C11.3538 0.0755363 12.0044 0.0539211 12.6505 0C12.6676 0.0619973 12.685 0.123994 12.7021 0.185991Z" fill="#7C7F98"/>
</svg>
