<svg width="25" height="26" viewBox="0 0 25 26" fill="none" xmlns="http://www.w3.org/2000/svg">
<path d="M2.97078 17.607C3.20829 17.3793 3.30871 17.0906 3.27578 16.7511C3.23748 16.3576 3.04598 16.0789 2.70478 15.8952C2.54924 15.8113 2.38203 15.7543 2.21319 15.7076C2.21692 15.6698 2.24565 15.6686 2.26339 15.6588C2.55158 15.5012 2.75733 15.2758 2.85635 14.957C2.88157 14.8755 2.87386 14.7908 2.89885 14.71C2.9117 14.6686 2.95677 14.6345 2.96658 14.6667C2.99787 14.7686 3.09269 14.8036 3.14944 14.876C3.28512 15.049 3.47172 15.1574 3.66696 15.2403C3.89349 15.3368 4.12959 15.3202 4.35729 15.2244C4.92502 14.986 5.15856 14.4351 5.0105 13.893C4.9325 13.6074 4.73002 13.4213 4.4778 13.283C4.31899 13.1959 4.14407 13.145 3.97406 13.0677C4.41077 12.8036 4.52964 12.6574 4.68168 12.042C4.77719 12.1448 4.87201 12.2424 4.96473 12.3398C5.10391 12.4857 5.26552 12.5848 5.45002 12.6487C5.69009 12.7317 5.92293 12.6817 6.1532 12.5927C6.53853 12.4437 6.82625 12.0383 6.80337 11.6371C6.79403 11.4722 6.73798 11.3106 6.67632 11.156C6.61257 10.9958 6.52616 10.8461 6.38907 10.7372C6.32135 10.6835 6.2368 10.6508 6.1595 10.6095C6.03573 10.5432 5.91149 10.4775 5.77907 10.407C6.19664 10.1966 6.38136 9.84793 6.42807 9.41098C6.43017 9.40444 6.43251 9.3979 6.43461 9.39136C6.48716 9.40444 6.48739 9.46937 6.53223 9.49015C6.55138 9.5413 6.58968 9.57633 6.63148 9.60832C6.63779 9.61603 6.6441 9.6235 6.65017 9.63121L6.64713 9.62864C6.64853 9.64102 6.6546 9.64849 6.66605 9.65059C6.66581 9.65059 6.66581 9.65059 6.66558 9.65059C6.67702 9.67908 6.69617 9.69987 6.7249 9.71154C6.727 9.72626 6.73657 9.73467 6.74989 9.74004L6.75035 9.74541L6.75573 9.74588C6.75549 9.75241 6.75829 9.75545 6.7646 9.75522C6.77207 9.75849 6.77955 9.76199 6.78702 9.76526C6.88744 9.86708 7.00234 9.94462 7.14246 9.98081C7.15577 10.0063 7.17983 9.99833 7.20085 9.9995C7.21393 10.0189 7.23518 10.0142 7.25363 10.0182C7.46965 10.0633 7.6747 10.0091 7.87297 9.93621C8.2123 9.81173 8.42809 9.56862 8.51847 9.21691C8.55747 9.21201 8.55607 9.18515 8.55116 9.15643C8.55256 9.14241 8.5542 9.1284 8.5556 9.11462C8.55794 9.11369 8.56167 9.11299 8.56191 9.11159C8.56261 9.10762 8.56191 9.10341 8.56167 9.09921C8.57989 9.0469 8.57452 8.99295 8.57195 8.93924C8.57171 8.90047 8.57148 8.86194 8.57125 8.82317C8.56868 8.79631 8.56611 8.76946 8.56354 8.7426C8.57101 8.73256 8.56354 8.72905 8.55607 8.72532C8.52431 8.56417 8.47456 8.41074 8.37437 8.27669C8.17447 8.00882 7.88488 7.89999 7.57731 7.82176C7.55326 7.81569 7.51823 7.8304 7.50772 7.80051C7.49277 7.758 7.54415 7.76711 7.56026 7.74656C7.56937 7.73488 7.58595 7.72858 7.6002 7.72157C7.78796 7.63166 7.92808 7.49037 8.03645 7.31615C8.14154 7.14707 8.18988 6.95673 8.22608 6.75286C8.2464 6.77107 8.2562 6.77901 8.26508 6.78765C8.44817 6.96841 8.62706 7.14543 8.86387 7.26897C9.05864 7.37056 9.25364 7.39719 9.44584 7.35772C10.0402 7.23628 10.3994 6.73464 10.3221 6.13445C10.2754 5.77013 10.0554 5.50553 9.71932 5.34509C9.59321 5.28484 9.4699 5.21945 9.33328 5.18372C9.30829 5.17718 9.26952 5.16737 9.26672 5.13467C9.26275 5.08867 9.30969 5.09801 9.33608 5.08376C9.46686 5.013 9.57336 4.91328 9.66887 4.80048C9.78774 4.66059 9.85173 4.49385 9.90638 4.3222C9.92086 4.2832 9.92623 4.24209 9.93581 4.20239C9.94188 4.1774 9.92623 4.12206 9.98649 4.13C9.98789 4.15031 9.99933 4.16339 10.0133 4.17857C10.1194 4.29184 10.22 4.40954 10.3461 4.50342C10.5587 4.66153 10.7854 4.75751 11.0589 4.7407C11.6406 4.70473 12.1726 4.17484 12.071 3.57091C12.0264 3.30537 11.9466 3.05596 11.7413 2.87053C11.5914 2.73508 11.4078 2.651 11.2247 2.56599C11.0706 2.49453 11.0323 2.51835 11.1967 2.38524C11.4821 2.15404 11.6479 1.86118 11.7158 1.50597C11.7191 1.48845 11.71 1.46276 11.7357 1.45692C11.7583 1.45179 11.7693 1.47397 11.7808 1.48845C11.8623 1.59121 11.9564 1.68065 12.057 1.76426C12.5229 2.151 13.0612 2.15427 13.5164 1.74324C13.9435 1.35744 13.9496 0.79321 13.661 0.315158C13.5666 0.158688 13.4188 0.0797533 13.2415 0.0412196C12.9463 -0.0232368 12.6479 0.0052544 12.352 0.0127276C12.1149 0.018566 11.9377 0.153317 11.8382 0.376579C11.7667 0.536786 11.6939 0.696292 11.6227 0.856499C11.6042 0.898302 11.582 0.93637 11.5453 0.877051C11.4017 0.644214 11.1948 0.484474 10.9608 0.352525C10.8457 0.287602 10.724 0.24323 10.5949 0.221511C10.4134 0.191385 10.2445 0.244631 10.0836 0.31983C9.89611 0.407407 9.75925 0.555236 9.63665 0.718012C9.52875 0.860937 9.45449 1.02278 9.37135 1.18509C9.34005 1.14959 9.30526 1.13067 9.27747 1.09658C9.0514 0.818899 8.77349 0.658225 8.39983 0.732958C8.19782 0.77336 8.02921 0.889428 7.84985 0.97934C7.61024 1.09961 7.37974 1.2381 7.13055 1.34693C7.11771 1.29975 7.1065 1.25842 7.09249 1.20704C6.9965 1.30863 6.9164 1.40952 6.8015 1.47701C6.29752 1.77314 5.78351 2.05174 5.29868 2.3808C4.49275 2.92798 3.78746 3.58492 3.14547 4.31356C3.00558 4.47236 2.86802 4.63397 2.73748 4.80048C2.55952 5.02771 2.37806 5.25308 2.23023 5.50226C2.20641 5.51441 2.19287 5.53332 2.1917 5.56041L2.1903 5.56252C2.16765 5.57443 2.15363 5.59218 2.15293 5.6188L2.1506 5.62184C2.10739 5.64916 2.09898 5.6989 2.07563 5.73907C2.06909 5.74701 2.06255 5.75518 2.05601 5.76312C2.02519 5.78718 2.01631 5.82455 1.99786 5.85631C1.98081 5.86471 1.97941 5.88153 1.97614 5.89741C1.96704 5.89974 1.95863 5.90255 1.96517 5.91492C1.8937 5.98102 1.87385 6.07863 1.81897 6.155C1.70781 6.265 1.66951 6.41703 1.59338 6.54711C1.56115 6.60246 1.56021 6.67065 1.53756 6.72343C1.49319 6.82619 1.49832 6.94529 1.40818 7.03614C1.32107 7.12418 1.25148 7.23254 1.19169 7.34558C1.0135 7.68257 0.885757 8.04128 0.746802 8.39439C0.651052 8.63797 0.580522 8.89159 0.505323 9.14288C0.365201 9.61066 0.27272 10.0901 0.17697 10.5682C0.14264 10.7396 0.117418 10.9133 0.0952318 11.0868C0.0730457 11.2592 0.148945 11.4094 0.287666 11.4682C0.360764 11.4993 0.439933 11.5156 0.516767 11.539C0.513965 11.5469 0.513263 11.5542 0.509526 11.5584C0.489209 11.5796 0.468424 11.6004 0.447172 11.6207C0.264779 11.7947 0.132363 12.0014 0.0651042 12.2436C0.00578563 12.4568 -0.0121956 12.6737 0.00788861 12.8986C0.0298411 13.1434 0.0688406 13.3842 0.110877 13.6298C0.176268 13.5327 0.231851 13.4323 0.2879 13.3323C0.304714 13.3027 0.314056 13.2651 0.365668 13.2954C0.583325 13.4234 0.803083 13.5479 1.02191 13.674C1.06161 13.6969 1.06371 13.7237 1.03756 13.7623C0.908876 13.9528 0.782766 14.1453 0.655254 14.3368C0.581923 14.447 0.58239 14.4461 0.487107 14.3573C0.366134 14.2445 0.243761 14.1329 0.122088 14.0208C0.116717 14.0231 0.111112 14.0252 0.105741 14.0276C0.252636 14.5862 0.399531 15.1448 0.553899 15.7317C0.610182 15.6095 0.656423 15.514 0.69846 15.4169C0.719478 15.3685 0.742597 15.3568 0.791406 15.3849C1.04479 15.5299 1.29889 15.6735 1.55461 15.8146C1.60762 15.8438 1.61439 15.8643 1.57843 15.9171C1.40141 16.177 1.22859 16.4398 1.05624 16.703C1.02448 16.7515 1.00276 16.7655 0.956985 16.7144C0.852593 16.5979 0.742131 16.4862 0.63447 16.3725C0.615086 16.3522 0.59687 16.3368 0.567444 16.3569C0.538252 16.3767 0.545725 16.3975 0.557402 16.4241C0.715273 16.7894 0.84769 17.1644 0.987112 17.5369C0.997855 17.5654 1.00299 17.6075 1.04877 17.5986C1.08426 17.5918 1.0852 17.5551 1.0887 17.5285C1.09851 17.4514 1.12396 17.3805 1.15853 17.3109C1.18795 17.3251 1.19963 17.3482 1.21528 17.369C1.37945 17.5881 1.57095 17.7807 1.83298 17.8727C2.26363 18.0245 2.65013 17.9141 2.97078 17.607ZM9.2025 2.73578C9.31296 2.56763 9.42366 2.39948 9.53599 2.2325C9.5507 2.21055 9.55794 2.17505 9.59741 2.17762C9.61516 2.1865 9.63221 2.19654 9.65019 2.20401C9.7331 2.23858 9.81787 2.27641 9.89611 2.31331C9.97341 2.34974 10.0463 2.42167 10.1287 2.46768C10.2193 2.51812 10.3092 2.5702 10.4005 2.61948C10.4314 2.63606 10.4426 2.6461 10.4183 2.6823C10.2385 2.94946 10.0603 3.2178 9.88536 3.48824C9.85757 3.53144 9.83375 3.51836 9.80783 3.49944C9.61282 3.35722 9.42226 3.20939 9.25294 3.03611C9.24617 3.0291 9.2394 3.02186 9.23216 3.01532C9.18802 2.97585 9.10768 2.9504 9.11095 2.89225C9.11422 2.83877 9.16887 2.78716 9.2025 2.73578ZM3.3755 13.2665C3.24028 13.4717 3.10366 13.6758 2.96541 13.879C2.93739 13.9201 2.90539 13.9636 2.88624 14.0049C2.83953 14.1063 2.80684 14.1028 2.71833 14.0404C2.49483 13.8828 2.29726 13.6931 2.07376 13.5364C2.04527 13.5166 2.03173 13.4956 2.05742 13.4577C2.20454 13.2415 2.34887 13.0233 2.49436 12.8059C2.50441 12.7907 2.50767 12.7667 2.5399 12.7721C2.56162 12.7819 2.58801 12.7931 2.61417 12.8055C2.87153 12.9288 3.09993 13.1095 3.37994 13.1892C3.43202 13.2043 3.38975 13.245 3.3755 13.2665ZM3.95935 8.04479C3.95958 8.04292 3.95981 8.04105 3.95958 8.03942C3.95981 8.04105 3.95958 8.04292 3.95935 8.04479ZM3.95748 8.03404C3.95841 8.03451 3.95888 8.03545 3.95911 8.03638C3.95888 8.03545 3.95841 8.03451 3.95748 8.03404ZM3.65575 8.82293C3.65948 8.82831 3.66392 8.83321 3.66906 8.83741C3.66392 8.83321 3.65925 8.82831 3.65575 8.82293ZM3.67747 8.84372C3.68214 8.84676 3.68751 8.84932 3.69335 8.85166C3.68774 8.84909 3.68237 8.84652 3.67747 8.84372ZM3.70059 8.85423C3.70666 8.85633 3.7132 8.85797 3.71997 8.85913C3.71296 8.85773 3.70666 8.8561 3.70059 8.85423ZM3.72394 8.85983C3.73188 8.861 3.74029 8.8617 3.74916 8.86193C3.74029 8.8617 3.73188 8.861 3.72394 8.85983ZM3.75056 8.86193C3.7557 8.86193 3.76084 8.86193 3.76598 8.8617C3.73865 8.81336 3.68517 8.79701 3.64594 8.76292C3.63122 8.69356 3.48083 8.70173 3.54552 8.58753C3.58031 8.52588 3.60764 8.46259 3.65458 8.4049C3.74145 8.29771 3.80848 8.1744 3.88391 8.05763C3.89022 8.05133 3.89629 8.04526 3.90259 8.03895C3.91497 8.03918 3.92735 8.03942 3.93973 8.03965C3.9465 8.04619 3.95327 8.05273 3.96005 8.05903C4.138 8.17907 4.32623 8.27926 4.52824 8.35282C4.57168 8.36871 4.57986 8.39509 4.55253 8.4355C4.41825 8.63424 4.28466 8.83391 4.15201 9.03382C4.11745 9.0859 4.08686 9.0922 4.03478 9.04923C3.95047 8.97987 3.87294 8.89907 3.76621 8.86123C3.7606 8.86194 3.75547 8.86217 3.75056 8.86193ZM5.10648 10.6604C4.93577 10.9173 4.76412 11.1735 4.59457 11.4313C4.57051 11.468 4.55557 11.4871 4.51423 11.4502C4.29354 11.2529 4.0537 11.0787 3.83487 10.8785C3.79797 10.8449 3.80778 10.8255 3.82459 10.8001C3.90773 10.6737 3.99438 10.5492 4.07751 10.4229C4.1324 10.3393 4.18284 10.2531 4.24333 10.1725C4.27859 10.1254 4.29914 10.1144 4.34959 10.1434C4.54109 10.2527 4.73399 10.3591 4.92689 10.4656C4.98294 10.4965 5.04039 10.5252 5.09831 10.5523C5.1212 10.563 5.13684 10.5752 5.13801 10.6095C5.12984 10.6226 5.11863 10.642 5.10648 10.6604ZM5.85077 8.5581C5.85777 8.56347 5.86571 8.56674 5.87435 8.56861C5.86548 8.56698 5.85754 8.56347 5.85077 8.5581ZM6.8753 9.66367C6.86806 9.66273 6.86199 9.65993 6.85778 9.65573C6.86199 9.65993 6.86806 9.66273 6.8753 9.66367C6.88534 9.66227 6.89445 9.6597 6.89912 9.65176C6.89445 9.65993 6.88534 9.6625 6.8753 9.66367ZM8.63991 5.25728C8.65299 5.26102 8.66046 5.28414 8.6705 5.29815C8.63197 5.36938 8.60394 5.44785 8.55396 5.50834C8.40333 5.6912 8.28446 5.89484 8.15788 6.09335C8.11234 6.16481 8.08619 6.18022 8.01379 6.12114C7.80735 5.95276 7.61141 5.77107 7.39071 5.61973C7.3384 5.584 7.32766 5.53963 7.36759 5.48054C7.50888 5.27106 7.64924 5.06088 7.78306 4.84649C7.81459 4.79581 7.83841 4.82664 7.85989 4.83808C7.98904 4.90651 8.11281 4.98521 8.24476 5.04733C8.38021 5.11085 8.49348 5.21525 8.63991 5.25728ZM7.04438 3.28646C7.15367 3.10033 7.28679 2.93078 7.40263 2.74932C7.42855 2.70869 7.447 2.71382 7.47899 2.73274C7.59109 2.79953 7.70365 2.86562 7.81645 2.93148C7.89212 2.97562 7.96802 3.01952 8.04439 3.06249C8.064 3.07347 8.08782 3.07838 8.08876 3.105C8.07988 3.14447 8.04649 3.16572 8.03014 3.19655C7.92528 3.39248 7.78119 3.56227 7.66699 3.7519C7.63896 3.79837 7.61024 3.79393 7.57404 3.76591C7.39935 3.63046 7.22444 3.49477 7.04928 3.35979C7.01799 3.3355 7.0264 3.31705 7.04438 3.28646ZM6.85124 7.90396C6.92341 7.94343 6.90776 7.99247 6.87343 8.03451C6.68613 8.26501 6.5411 8.52401 6.37296 8.76735C6.32602 8.83531 6.30009 8.83368 6.24498 8.78323C6.15507 8.70079 6.05885 8.62513 5.9652 8.54666C5.91546 8.50345 5.8858 8.43316 5.80756 8.42802C5.79005 8.36987 5.7333 8.37104 5.69079 8.35072C5.69383 8.32597 5.67608 8.31032 5.66487 8.29187C5.66721 8.27949 5.65927 8.27529 5.64969 8.27272C5.64128 8.25777 5.63054 8.24703 5.61162 8.24843L5.61443 8.24633C5.59177 8.25404 5.56935 8.26408 5.57379 8.28883C5.56935 8.26431 5.59177 8.25404 5.61443 8.24633C5.56562 8.21107 5.57099 8.1765 5.60415 8.12863C5.74357 7.92685 5.88206 7.72437 6.01238 7.51676C6.046 7.46328 6.07473 7.46982 6.1121 7.4906C6.35871 7.62769 6.60323 7.76898 6.85124 7.90396ZM6.23353 5.70077C6.3127 5.72973 6.32205 5.76873 6.27464 5.84043C6.14993 6.02912 6.02592 6.21829 5.89911 6.40535C5.8844 6.42707 5.87786 6.46164 5.83535 6.46677C5.79005 6.43314 5.73306 6.40442 5.69453 6.35981C5.59177 6.24071 5.46683 6.14846 5.34025 6.05948C5.27416 6.01301 5.26529 5.98709 5.31643 5.91913C5.42526 5.77433 5.52592 5.62277 5.62073 5.46817C5.6637 5.39834 5.69546 5.40301 5.75712 5.44154C5.91055 5.53776 6.06188 5.63795 6.23353 5.70077ZM5.00816 3.70799C5.08266 3.60594 5.14945 3.49804 5.21695 3.39108C5.24754 3.34274 5.27977 3.33644 5.32928 3.36516C5.44698 3.43312 5.56632 3.49874 5.68729 3.56133C5.7319 3.58445 5.72793 3.59916 5.70387 3.6398C5.61933 3.78343 5.51891 3.91584 5.42503 4.05293C5.41522 4.06717 5.41522 4.09426 5.38392 4.08702C5.37785 4.08235 5.36991 4.07675 5.36244 4.07068C5.24917 3.97796 5.13638 3.88502 5.02288 3.793C4.99205 3.76801 4.9771 3.7505 5.00816 3.70799ZM3.2933 6.37709C3.35869 6.28134 3.42478 6.18559 3.4869 6.08774C3.51399 6.045 3.54015 6.04127 3.58312 6.06415C3.69101 6.12184 3.80077 6.17602 3.9103 6.23067C3.9507 6.25075 3.94907 6.27621 3.92478 6.3075C3.82459 6.43711 3.75523 6.58681 3.65481 6.71713C3.61231 6.77224 3.5976 6.73768 3.56864 6.72039C3.56187 6.67439 3.53641 6.64893 3.48853 6.6487C3.4472 6.57 3.35191 6.55178 3.30194 6.47845C3.27531 6.43945 3.26761 6.41469 3.2933 6.37709ZM1.85891 6.26943C1.85891 6.26476 1.85821 6.26056 1.85704 6.25612C1.85797 6.26033 1.85867 6.26476 1.85891 6.26943ZM1.8526 6.24421C1.85167 6.24188 1.8505 6.23954 1.8491 6.23744C1.8505 6.23954 1.85167 6.24188 1.8526 6.24421ZM1.49692 9.11673C1.44905 9.08356 1.43457 9.05204 1.47871 8.98968C1.54667 8.89393 1.6193 8.79958 1.66484 8.68795C1.69987 8.60224 1.78558 8.64545 1.8164 8.6709C1.93387 8.76782 2.08661 8.79678 2.20291 8.89627C2.08941 9.03172 2.01328 9.19986 1.90375 9.34676C1.86498 9.39884 1.83952 9.393 1.80659 9.36427C1.70664 9.27716 1.60575 9.19216 1.49692 9.11673ZM1.76269 11.2174C1.87152 11.0607 1.97264 10.8986 2.07586 10.7379C2.10552 10.6917 2.13775 10.6791 2.18703 10.7132C2.35004 10.826 2.52706 10.915 2.70128 11.0084C2.73421 11.0261 2.77531 11.0378 2.78255 11.0845C2.77274 11.0988 2.76363 11.1118 2.75476 11.1254C2.62935 11.3148 2.5009 11.5025 2.38016 11.695C2.34373 11.7529 2.31758 11.7377 2.27834 11.7078C2.1137 11.5815 1.94835 11.4554 1.78324 11.3295C1.74167 11.2982 1.72509 11.2713 1.76269 11.2174Z" fill="#7C7F98"/>
<path d="M13.2019 2.14697C12.6129 2.14791 12.1414 2.60798 12.1363 3.20327C12.1314 3.78174 12.6157 4.26166 13.1912 4.26259C13.7743 4.26353 14.2659 3.78314 14.2678 3.21051C14.2694 2.63647 13.7806 2.14581 13.2019 2.14697Z" fill="#7C7F98"/>
<path d="M8.63774 8.52001C8.6326 9.10993 9.08683 9.55949 9.67511 9.55996C10.2825 9.56066 10.7361 9.04781 10.7365 8.52632C10.7372 7.94037 10.2671 7.45134 9.7008 7.44971C9.11462 7.44831 8.63797 7.928 8.63774 8.52001Z" fill="#7C7F98"/>
<path d="M4.37831 15.4073C3.76107 15.4126 3.3281 15.8452 3.31946 16.4348C3.31058 17.049 3.79681 17.5072 4.37178 17.503C4.95375 17.5051 5.43087 17.0495 5.4255 16.4568C5.42036 15.8818 5.00326 15.4019 4.37831 15.4073Z" fill="#7C7F98"/>
<path d="M6.87314 11.1108C6.84582 11.6981 7.34629 12.1839 7.89487 12.201C8.47497 12.2509 8.95793 11.7881 8.98315 11.2206C9.00838 10.6531 8.58871 10.1145 7.92569 10.1089C7.37011 10.1043 6.90046 10.5225 6.87314 11.1108Z" fill="#7C7F98"/>
<path d="M10.3892 5.8734C10.3951 6.4159 10.8002 6.91311 11.4471 6.90633C12.0807 6.89979 12.4763 6.42711 12.4836 5.85775C12.4808 5.29305 12.0034 4.81127 11.4418 4.82271C10.8505 4.83462 10.3829 5.30613 10.3892 5.8734Z" fill="#7C7F98"/>
<path d="M6.14261 14.8531C6.71828 14.879 7.15756 14.3486 7.16854 13.8115C7.18022 13.237 6.68605 12.7608 6.14798 12.7557C5.57208 12.7501 5.08795 13.2223 5.08305 13.7776C5.07791 14.3773 5.56694 14.8689 6.14261 14.8531Z" fill="#7C7F98"/>
<path d="M13.6548 4.39214C13.0899 4.38677 12.6446 4.8452 12.645 5.41457C12.6553 5.99304 13.0845 6.41691 13.6394 6.41434C14.2809 6.4113 14.6553 5.93208 14.6532 5.41059C14.6509 4.8466 14.2627 4.39798 13.6548 4.39214Z" fill="#7C7F98"/>
<path d="M8.37715 12.3561C7.80078 12.3463 7.37994 12.8407 7.37457 13.3388C7.36873 13.8851 7.77929 14.3825 8.36944 14.3795C8.93951 14.3767 9.36571 13.9369 9.36034 13.3825C9.37529 12.7961 8.87926 12.3647 8.37715 12.3561Z" fill="#7C7F98"/>
<path d="M6.56773 17.0222C7.16559 17.0169 7.57918 16.5771 7.57568 16.0096C7.58922 15.4589 7.14013 15.0147 6.60556 15.011C6.05208 15.0073 5.60112 15.4368 5.59061 15.9545C5.578 16.582 5.99743 17.0276 6.56773 17.0222Z" fill="#7C7F98"/>
<path d="M13.9173 2.699C13.8953 3.29499 14.3561 3.73334 14.8867 3.73731C15.4614 3.74175 15.9222 3.31484 15.9208 2.74408C15.9194 2.20974 15.5172 1.75435 14.9296 1.75318C14.3621 1.75154 13.9369 2.16397 13.9173 2.699Z" fill="#7C7F98"/>
<path d="M10.114 11.6858C10.6719 11.6912 11.132 11.2509 11.1283 10.7178C11.1243 10.1458 10.7266 9.69184 10.1292 9.69558C9.5589 9.69908 9.132 10.1152 9.12896 10.6851C9.12312 11.289 9.5902 11.6806 10.114 11.6858Z" fill="#7C7F98"/>
<path d="M11.8905 9.05644C12.4463 9.05317 12.8781 8.61412 12.8737 8.05689C12.8692 7.50061 12.4351 7.06343 11.8914 7.06716C11.2868 7.07884 10.8592 7.5256 10.8708 8.09239C10.8818 8.6342 11.3251 9.05994 11.8905 9.05644Z" fill="#7C7F98"/>
<path d="M5.81922 18.6765C5.81735 18.1279 5.38787 17.6569 4.83042 17.6592C4.32971 17.6613 3.79351 18.0782 3.82294 18.6536C3.8199 19.2015 4.2356 19.6632 4.81594 19.655C5.37783 19.6473 5.82132 19.2342 5.81922 18.6765Z" fill="#7C7F98"/>
<path d="M2.88897 20.109C3.42938 19.9903 3.75376 19.4133 3.66034 18.9034C3.5688 18.4053 3.10079 18.0391 2.6211 18.0555C2.42026 18.0387 2.22292 18.1085 2.04753 18.2227C1.86911 18.3387 1.67481 18.4499 1.67037 18.7124C1.66804 18.8509 1.66407 18.9786 1.7416 19.1055C1.90041 19.3656 2.07206 19.6162 2.24931 19.864C2.3934 20.0655 2.64633 20.1622 2.88897 20.109Z" fill="#7C7F98"/>
<path d="M12.3218 11.2333C12.8538 11.2328 13.2725 10.7938 13.2795 10.2849C13.2873 9.74261 12.8442 9.31711 12.3129 9.31641C11.7987 9.31594 11.3645 9.74868 11.3839 10.2445C11.3671 10.7882 11.801 11.2335 12.3218 11.2333Z" fill="#7C7F98"/>
<path d="M16.1729 2.29476C16.1764 2.89285 16.6051 3.27936 17.1042 3.28193C17.6397 3.28473 18.0659 2.85128 18.0666 2.30854C18.0673 1.78728 17.6486 1.37976 17.1112 1.37883C16.6596 1.36084 16.1694 1.71536 16.1729 2.29476Z" fill="#7C7F98"/>
<path d="M15.3555 4.03031C14.8155 4.0289 14.4055 4.43082 14.3933 4.95208C14.3814 5.47777 14.8046 5.93177 15.3595 5.9264C15.9083 5.92103 16.2847 5.5107 16.2922 4.98407C16.3001 4.44063 15.8849 4.0261 15.3555 4.03031Z" fill="#7C7F98"/>
<path d="M14.0981 6.67509C13.5597 6.67019 13.1501 7.0623 13.1417 7.61251C13.1335 8.14638 13.5579 8.56558 14.0941 8.56558C14.6109 8.56558 15.0612 8.13073 15.0544 7.62209C15.0469 7.07725 14.6291 6.68 14.0981 6.67509Z" fill="#7C7F98"/>
<path d="M8.79619 16.5211C9.32725 16.5277 9.74575 16.0891 9.73595 15.5629C9.75696 15.0094 9.31394 14.629 8.80156 14.6248C8.24971 14.6204 7.84452 15.0307 7.83892 15.5669C7.83331 16.1052 8.27587 16.5148 8.79619 16.5211Z" fill="#7C7F98"/>
<path d="M7.05115 19.1694C7.58339 19.1624 7.9762 18.743 7.97666 18.2234C7.97713 17.6975 7.5598 17.2584 6.99534 17.268C6.48903 17.2766 6.0787 17.6993 6.08057 18.2245C6.09248 18.7703 6.50958 19.1764 7.05115 19.1694Z" fill="#7C7F98"/>
<path d="M6.21949 20.8016C6.198 20.3265 5.77553 19.9013 5.21785 19.9433C4.7106 19.9816 4.32246 20.3761 4.3262 20.8744C4.3304 21.4485 4.7517 21.8282 5.30215 21.8163C5.80473 21.8053 6.27133 21.4377 6.21949 20.8016Z" fill="#7C7F98"/>
<path d="M10.5295 13.851C11.0533 13.8778 11.5008 13.3977 11.4982 12.9103C11.4954 12.382 11.0424 11.9612 10.5645 11.9617C10.0622 11.9621 9.61147 12.3638 9.61427 12.9278C9.61684 13.4542 10.0304 13.8683 10.5295 13.851Z" fill="#7C7F98"/>
<path d="M11.925 15.134C11.9294 14.6155 11.5161 14.2498 11.0091 14.2452C10.5217 14.2407 10.1275 14.6436 10.1275 15.1361C10.124 15.6387 10.5177 16.0434 11.0322 16.0399C11.5516 16.0364 11.9206 15.6396 11.925 15.134Z" fill="#7C7F98"/>
<path d="M16.3126 6.29126C15.8318 6.29056 15.4214 6.68711 15.4156 7.17684C15.4097 7.65605 15.8455 8.07479 16.3364 8.07502C16.8257 8.07525 17.219 7.67941 17.2138 7.18057C17.2087 6.65791 16.7722 6.29219 16.3126 6.29126Z" fill="#7C7F98"/>
<path d="M17.1816 4.52324C17.1795 5.03866 17.5523 5.42236 18.0567 5.424C18.5672 5.42563 18.9635 5.03375 18.9654 4.52511C18.9675 4.03725 18.5817 3.65331 18.0826 3.64584C17.6034 3.63883 17.1835 4.04752 17.1816 4.52324Z" fill="#7C7F98"/>
<path d="M14.5579 8.93958C14.0567 8.93164 13.6387 9.30623 13.6431 9.8004C13.6373 10.3016 14.0425 10.7065 14.5509 10.7147C15.0644 10.7231 15.4267 10.2978 15.4283 9.83286C15.4302 9.34126 15.0408 8.94705 14.5579 8.93958Z" fill="#7C7F98"/>
<path d="M9.23966 18.6623C9.75928 18.6826 10.1439 18.2524 10.1381 17.7657C10.1315 17.2335 9.71117 16.8839 9.24736 16.8799C8.76254 16.8757 8.35291 17.3215 8.35945 17.8031C8.36622 18.2923 8.77912 18.6919 9.23966 18.6623Z" fill="#7C7F98"/>
<path d="M13.6618 12.4802C13.6625 11.9809 13.2802 11.5918 12.7812 11.597C12.2886 11.6021 11.8849 11.9767 11.8867 12.5003C11.8886 12.9898 12.2445 13.3639 12.7714 13.3735C13.2632 13.3824 13.6611 12.9751 13.6618 12.4802Z" fill="#7C7F98"/>
<path d="M8.36797 20.399C8.36447 19.8744 7.95461 19.5304 7.45508 19.5372C6.96395 19.5437 6.59776 19.8763 6.59216 20.4207C6.57744 20.923 7.01766 21.3079 7.47609 21.3051C7.99828 21.3021 8.37148 20.927 8.36797 20.399Z" fill="#7C7F98"/>
<path d="M14.4632 1.61495C14.9111 1.61332 15.3193 1.31649 15.4863 0.871136C15.5856 0.606304 15.5286 0.501678 15.25 0.438623C15.2467 0.437922 15.2434 0.438156 15.2402 0.437456C14.7495 0.308076 14.242 0.265339 13.7488 0.147403C13.5393 0.0974259 13.4482 0.166319 13.4158 0.375335C13.4003 0.474122 13.3973 0.573376 13.4067 0.676132C13.4573 1.22681 13.9618 1.63107 14.4632 1.61495Z" fill="#7C7F98"/>
<path d="M15.922 9.39651C15.9035 9.87293 16.3083 10.1828 16.7223 10.2162C17.2546 10.2592 17.5981 9.77928 17.6067 9.40071C17.6175 8.92149 17.2494 8.58847 16.7859 8.5511C16.2961 8.5114 15.9141 8.94719 15.922 9.39651Z" fill="#7C7F98"/>
<path d="M18.5083 5.90748C18.0456 5.91029 17.6724 6.29632 17.6738 6.75312C17.6752 7.21296 18.0722 7.6081 18.529 7.60413C18.97 7.60016 19.3429 7.20502 19.3392 6.74542C19.3525 6.29259 18.9352 5.90491 18.5083 5.90748Z" fill="#7C7F98"/>
<path d="M19.4355 4.09755C19.4355 4.54221 19.8218 4.91493 20.2828 4.91493C20.7389 4.9147 21.121 4.54291 21.1212 4.09918C21.1215 3.63047 20.7457 3.25098 20.2819 3.25098C19.8216 3.25074 19.4355 3.63701 19.4355 4.09755Z" fill="#7C7F98"/>
<path d="M11.4939 18.1698C11.964 18.1652 12.3176 17.7172 12.3083 17.3044C12.2982 16.8574 11.8872 16.4935 11.4552 16.5031C10.9416 16.4818 10.6009 16.9923 10.6147 17.3562C10.6315 17.7971 11.0252 18.1745 11.4939 18.1698Z" fill="#7C7F98"/>
<path d="M13.2193 15.5306C13.7123 15.5353 14.0684 15.1182 14.0558 14.6733C14.0738 14.2046 13.6287 13.8706 13.2008 13.8711C12.7524 13.8718 12.3638 14.2583 12.3692 14.7072C12.3743 15.1464 12.7099 15.5257 13.2193 15.5306Z" fill="#7C7F98"/>
<path d="M15.833 12.0293C15.8449 11.5606 15.4372 11.2045 14.9949 11.2014C14.5509 11.1993 14.1693 11.5779 14.1511 12.0078C14.1317 12.4632 14.5229 12.8668 14.9895 12.8628C15.461 12.8586 15.8206 12.5127 15.833 12.0293Z" fill="#7C7F98"/>
<path d="M9.70988 20.8133C10.1907 20.8327 10.5294 20.3611 10.5422 19.9894C10.559 19.4975 10.0922 19.1344 9.67695 19.1538C9.21828 19.1309 8.86073 19.5368 8.85793 19.9971C8.85466 20.4831 9.22949 20.7939 9.70988 20.8133Z" fill="#7C7F98"/>
<path d="M8.76631 22.6337C8.77309 22.1921 8.39405 21.7902 7.90946 21.803C7.48793 21.8142 7.09722 22.1524 7.09185 22.6375C7.08648 23.1118 7.4982 23.4612 7.93515 23.4534C8.39312 23.4605 8.75977 23.0704 8.76631 22.6337Z" fill="#7C7F98"/>
<path d="M18.1812 8.94796C18.1809 9.34404 18.4812 9.70976 18.9628 9.7149C19.4177 9.7198 19.722 9.31368 19.7279 8.92414C19.7344 8.50121 19.3776 8.15674 18.9444 8.15674C18.5303 8.15697 18.1819 8.51825 18.1812 8.94796Z" fill="#7C7F98"/>
<path d="M19.9642 6.30794C19.9509 6.73017 20.3134 7.07744 20.7396 7.08748C21.1541 7.09706 21.4979 6.73835 21.499 6.3077C21.5196 5.88453 21.1384 5.54147 20.7202 5.52909C20.3194 5.51718 19.9775 5.88733 19.9642 6.30794Z" fill="#7C7F98"/>
<path d="M17.2131 12.3777C17.6414 12.4003 17.9667 12.018 17.9765 11.5937C17.9856 11.1983 17.6007 10.8305 17.1885 10.8291C16.7621 10.8277 16.447 11.1995 16.4368 11.6101C16.4258 12.0328 16.7803 12.3768 17.2131 12.3777Z" fill="#7C7F98"/>
<path d="M15.4486 15.0286C15.8933 15.0368 16.2064 14.6554 16.2081 14.2426C16.2097 13.7958 15.8124 13.4836 15.4143 13.4815C14.9712 13.4794 14.6747 13.8796 14.6705 14.2773C14.666 14.6856 15.0287 15.0286 15.4486 15.0286Z" fill="#7C7F98"/>
<path d="M12.6608 19.5318C12.662 19.113 12.3163 18.7816 11.8775 18.7809C11.4585 18.7585 11.1159 19.1513 11.1152 19.5537C11.1145 19.9942 11.4751 20.2973 11.8885 20.3092C12.3091 20.3214 12.6594 19.9598 12.6608 19.5318Z" fill="#7C7F98"/>
<path d="M13.6913 17.6617C14.0622 17.6743 14.438 17.3654 14.4394 16.8908C14.4405 16.4648 14.0839 16.1141 13.7021 16.1066C13.2563 16.0977 12.9211 16.5094 12.9118 16.8857C12.9015 17.3053 13.3317 17.6937 13.6913 17.6617Z" fill="#7C7F98"/>
<path d="M10.8897 22.1766C10.886 21.7525 10.5321 21.4211 10.1057 21.4197C9.67366 21.418 9.35605 21.781 9.36142 22.2051C9.3369 22.6259 9.73882 22.9638 10.1382 22.9627C10.5478 22.9617 10.8934 22.6037 10.8897 22.1766Z" fill="#7C7F98"/>
<path d="M20.4634 8.50517C20.4611 8.87392 20.8067 9.21395 21.1719 9.21255C21.5468 9.21092 21.8861 8.86879 21.8819 8.49653C21.8779 8.12777 21.536 7.78284 21.1724 7.79218C20.7623 7.80222 20.4657 8.13337 20.4634 8.50517Z" fill="#7C7F98"/>
<path d="M14.818 19.0942C14.8177 18.726 14.4864 18.3911 14.1209 18.3899C13.732 18.3887 13.4055 18.7187 13.4051 19.1134C13.3929 19.5123 13.7682 19.7988 14.1085 19.8012C14.4894 19.8035 14.8182 19.4742 14.818 19.0942Z" fill="#7C7F98"/>
<path d="M19.4252 11.854C19.8269 11.8489 20.1032 11.5315 20.1076 11.1415C20.1123 10.741 19.7795 10.4612 19.4047 10.453C18.9703 10.4437 18.6889 10.836 18.7066 11.1532C18.6798 11.5117 19.0025 11.8596 19.4252 11.854Z" fill="#7C7F98"/>
<path d="M15.8822 17.1513C16.2673 17.1569 16.584 16.8348 16.5823 16.4285C16.5807 16.0539 16.272 15.7524 15.8789 15.7561C15.4786 15.7409 15.1725 16.077 15.1743 16.4668C15.176 16.8365 15.4982 17.1457 15.8822 17.1513Z" fill="#7C7F98"/>
<path d="M17.5961 14.4986C17.9676 14.5175 18.3378 14.2174 18.3392 13.8216C18.3406 13.4615 18.0524 13.1282 17.7187 13.1037C17.2551 13.0696 16.9177 13.4533 16.9406 13.8036C16.9293 14.1502 17.2472 14.4809 17.5961 14.4986Z" fill="#7C7F98"/>
<path d="M13.0523 21.7456C13.0513 21.3696 12.7237 21.0392 12.3498 21.0415C11.974 21.0439 11.6438 21.3626 11.644 21.7487C11.6443 22.1209 11.9502 22.4439 12.3391 22.4451C12.7258 22.4462 13.0478 22.1433 13.0523 21.7456Z" fill="#7C7F98"/>
<path d="M10.5827 23.6929C10.2137 23.6922 9.87692 24.0152 9.88089 24.3947C9.8851 24.7917 10.2053 25.095 10.585 25.0995C10.9764 25.1039 11.2943 24.7531 11.2849 24.3961C11.2989 24.0579 10.9804 23.6936 10.5827 23.6929Z" fill="#7C7F98"/>
<path d="M5.73181 22.1975C5.41747 22.2106 5.16758 22.3327 4.99103 22.6064C4.92914 22.7024 4.96581 22.7368 5.0361 22.7832C5.25259 22.9259 5.46534 23.0747 5.6844 23.2129C5.90019 23.3491 6.09846 23.513 6.33317 23.6205C6.38408 23.6438 6.40603 23.6408 6.43989 23.5959C6.57605 23.4154 6.63443 23.2209 6.61271 22.9901C6.56787 22.5114 6.15802 22.187 5.73181 22.1975Z" fill="#7C7F98"/>
<path d="M20.9893 10.7061C20.9883 11.0732 21.2576 11.352 21.6144 11.3537C21.9654 11.3553 22.2427 11.0874 22.2443 10.7448C22.2462 10.3728 21.9636 10.0828 21.6035 10.0872C21.2693 10.0912 20.99 10.3726 20.9893 10.7061Z" fill="#7C7F98"/>
<path d="M19.8221 13.984C20.1813 13.9864 20.4744 13.7064 20.4742 13.3607C20.4784 13.0233 20.2117 12.7426 19.8448 12.7393C19.4996 12.7362 19.2002 12.9838 19.2012 13.3558C19.2019 13.7108 19.4693 13.9819 19.8221 13.984Z" fill="#7C7F98"/>
<path d="M14.5617 21.9424C14.8814 21.9671 15.1976 21.6925 15.1918 21.3198C15.1864 20.9779 14.9319 20.6908 14.5666 20.6939C14.1918 20.6969 13.94 20.976 13.9351 21.3212C13.9302 21.6829 14.2182 21.9568 14.5617 21.9424Z" fill="#7C7F98"/>
<path d="M22.7332 8.04136C22.7227 8.38676 22.97 8.68756 23.3512 8.69503C23.7206 8.70227 23.9789 8.37555 23.9733 8.04159C23.9745 7.69082 23.7139 7.42926 23.3645 7.43042C23.0142 7.43183 22.7435 7.7018 22.7332 8.04136Z" fill="#7C7F98"/>
<path d="M16.9308 18.6521C16.9264 18.3042 16.683 18.0382 16.3309 18.0396C15.9798 18.041 15.6671 18.2666 15.6699 18.6603C15.6725 19.0316 15.9177 19.2661 16.2991 19.2871C16.6632 19.2761 16.9357 19.0295 16.9308 18.6521Z" fill="#7C7F98"/>
<path d="M12.8208 23.3366C12.4994 23.3212 12.1809 23.5736 12.1692 23.9562C12.1585 24.3112 12.4707 24.6241 12.7958 24.593C13.1066 24.6131 13.424 24.3506 13.4184 23.9945C13.4128 23.6306 13.154 23.3525 12.8208 23.3366Z" fill="#7C7F98"/>
<path d="M18.0867 16.6196C18.434 16.6472 18.7147 16.3043 18.707 16.0267C18.6977 15.6948 18.4597 15.3898 18.1 15.3928C17.7497 15.3959 17.4637 15.6348 17.4571 16.0262C17.4513 16.3571 17.7362 16.6199 18.0867 16.6196Z" fill="#7C7F98"/>
<path d="M22.914 6.58069C23.0534 6.58069 23.2136 6.52347 23.3201 6.43543C23.4311 6.34412 23.4556 6.20189 23.3843 6.07765C23.2389 5.82333 23.0726 5.58231 22.9112 5.33827C22.7879 5.15167 22.7884 5.15424 22.5908 5.25139C22.2713 5.40833 22.1594 5.75023 22.2181 6.03841C22.2792 6.33898 22.6041 6.58092 22.914 6.58069Z" fill="#7C7F98"/>
<path d="M2.70865 20.4309C2.64583 20.4624 2.63789 20.4881 2.69067 20.5442C2.88847 20.7539 3.07927 20.9702 3.27521 21.182C3.48259 21.4062 3.69277 21.6276 3.91323 21.8627C4.02673 21.5876 4.08302 21.3132 4.01599 21.0297C3.88451 20.4746 3.24718 20.1609 2.70865 20.4309Z" fill="#7C7F98"/>
<path d="M22.5966 12.9215C22.5987 12.6139 22.3691 12.3813 22.0618 12.3799C21.7556 12.3785 21.5195 12.6146 21.5186 12.9231C21.5176 13.2155 21.7547 13.4511 22.0538 13.4556C22.3525 13.4598 22.5947 13.2216 22.5966 12.9215Z" fill="#7C7F98"/>
<path d="M20.8303 15.5929C20.831 15.2706 20.6089 15.031 20.3088 15.0305C20.0101 15.0301 19.757 15.2652 19.7544 15.545C19.7518 15.8505 19.9908 16.1029 20.2855 16.1062C20.5706 16.1095 20.8296 15.8654 20.8303 15.5929Z" fill="#7C7F98"/>
<path d="M17.3035 20.8762C17.3073 20.5502 17.0261 20.304 16.783 20.3323C16.4721 20.3314 16.2162 20.5635 16.2183 20.8556C16.2201 21.1324 16.4296 21.4042 16.7519 21.4017C17.0574 21.3991 17.3 21.1919 17.3035 20.8762Z" fill="#7C7F98"/>
<path d="M15.0042 22.9846C14.7078 22.9863 14.4752 23.2091 14.4661 23.4863C14.4554 23.8097 14.7317 24.0661 14.9881 24.0437C15.2646 24.0596 15.5437 23.8242 15.5397 23.5327C15.5355 23.2329 15.3267 22.9828 15.0042 22.9846Z" fill="#7C7F98"/>
<path d="M24.3463 10.2889C24.354 10.0271 24.1426 9.76367 23.8133 9.75433C23.541 9.74662 23.2909 9.99464 23.2876 10.2672C23.2841 10.5645 23.5195 10.8195 23.8068 10.8151C24.1179 10.8104 24.3416 10.582 24.3463 10.2889Z" fill="#7C7F98"/>
<path d="M19.0435 18.2387C19.0666 17.9937 18.8574 17.7039 18.5283 17.7041C18.2028 17.7043 17.9987 17.9325 17.9947 18.2237C17.9903 18.5353 18.2189 18.7508 18.5141 18.7588C18.8097 18.7667 19.0428 18.5332 19.0435 18.2387Z" fill="#7C7F98"/>
<path d="M24.7187 12.4982C24.7171 12.2462 24.5071 12.0339 24.2601 12.0342C24.0284 12.0344 23.8177 12.2609 23.8198 12.5078C23.8217 12.7446 24.0324 12.9433 24.2811 12.9426C24.5212 12.9422 24.7201 12.7399 24.7187 12.4982Z" fill="#7C7F98"/>
<path d="M22.9128 15.1015C22.9111 14.864 22.7089 14.6629 22.4763 14.6681C22.2416 14.6732 22.0492 14.8726 22.0543 15.1059C22.0597 15.3535 22.264 15.5597 22.5013 15.5569C22.7339 15.5541 22.9144 15.3544 22.9128 15.1015Z" fill="#7C7F98"/>
<path d="M17.1929 22.6465C16.9846 22.656 16.7557 22.7959 16.7608 23.0507C16.7653 23.2684 16.9537 23.5182 17.2043 23.494C17.4579 23.4933 17.6476 23.3134 17.6487 23.0766C17.6497 22.8319 17.4365 22.6352 17.1929 22.6465Z" fill="#7C7F98"/>
<path d="M21.144 17.7696C21.1706 17.5314 20.9522 17.3067 20.7114 17.3191C20.4728 17.3315 20.31 17.4632 20.2922 17.7439C20.2773 17.9828 20.4921 18.2072 20.725 18.2054C20.9679 18.2035 21.1514 17.9959 21.144 17.7696Z" fill="#7C7F98"/>
<path d="M19.3881 20.4106C19.3925 20.1509 19.1947 19.9832 18.9649 19.9626C18.7134 19.9736 18.5326 20.1598 18.5308 20.3938C18.5291 20.6042 18.6758 20.8419 18.9535 20.851C19.2291 20.8599 19.3841 20.6506 19.3881 20.4106Z" fill="#7C7F98"/>
<path d="M19.8515 2.77391C19.9538 2.78488 20.0673 2.74869 20.1778 2.69684C20.2011 2.68586 20.2348 2.68399 20.2392 2.6562C20.2439 2.62678 20.2091 2.61884 20.1892 2.60553C19.8083 2.3512 19.427 2.09782 19.0458 1.84373C19.0215 1.82761 18.9961 1.79655 18.9695 1.80823C18.9356 1.82341 18.9468 1.86591 18.9459 1.89721C18.93 2.36241 19.3455 2.77391 19.8515 2.77391Z" fill="#7C7F98"/>
<path d="M9.00152 24.4273C8.84669 24.1786 8.60124 24.1069 8.38732 24.0847C8.14561 24.0836 8.01716 24.1378 7.88848 24.2709C7.77802 24.3851 7.77966 24.3918 7.92772 24.4374C7.93986 24.4411 7.95061 24.45 7.96252 24.4542C8.3189 24.5789 8.67551 24.7029 9.03165 24.8283C9.08303 24.8465 9.10895 24.843 9.10125 24.7786C9.08723 24.6557 9.06832 24.5348 9.00152 24.4273Z" fill="#7C7F98"/>
<path d="M24.997 14.7122C24.9946 14.6928 24.9967 14.6729 24.9967 14.6533C24.9949 14.6533 24.993 14.6533 24.9911 14.6533C24.9911 14.6141 24.9925 14.5748 24.9909 14.5356C24.9844 14.3908 24.9094 14.339 24.7742 14.3838C24.7125 14.4044 24.6492 14.4202 24.5894 14.4452C24.4879 14.4877 24.3944 14.5433 24.3709 14.6634C24.3435 14.8011 24.4297 14.8859 24.5271 14.9543C24.628 15.0253 24.7426 15.0426 24.8599 14.9875C24.9776 14.9322 25.011 14.8341 24.997 14.7122Z" fill="#7C7F98"/>
<path d="M19.2567 22.3597C19.1418 22.434 19.1313 22.5489 19.1418 22.671C19.1458 22.732 19.1404 22.7932 19.1528 22.855C19.1659 22.9211 19.2439 22.9968 19.3027 22.9751C19.4022 22.9382 19.5064 22.9097 19.5961 22.8494C19.7464 22.7485 19.7826 22.6245 19.7004 22.4973C19.5937 22.3312 19.3964 22.2693 19.2567 22.3597Z" fill="#7C7F98"/>
<path d="M21.353 19.7792C21.345 19.7481 21.331 19.7119 21.2869 19.729C21.236 19.7484 21.1837 19.7397 21.1323 19.7453C20.951 19.7656 20.8892 19.8203 20.8892 19.9875C20.9001 20.0721 20.9146 20.1846 20.9291 20.2969C20.9342 20.3376 20.9564 20.3294 20.9851 20.3208C21.0657 20.2965 21.1482 20.2783 21.2283 20.2526C21.3646 20.2089 21.4158 20.13 21.3973 19.9884C21.388 19.9179 21.3702 19.8483 21.353 19.7792Z" fill="#7C7F98"/>
<path d="M23.1404 17.1842C23.1119 17.1092 23.064 17.0513 22.9741 17.0618C22.8454 17.077 22.7174 17.0977 22.5859 17.1164C22.6193 17.2225 22.6481 17.3187 22.6801 17.4135C22.7258 17.5492 22.8106 17.5964 22.9505 17.5658C23.0138 17.552 23.0761 17.5326 23.1399 17.5219C23.1784 17.5153 23.1913 17.4976 23.1845 17.4625C23.1663 17.3703 23.1745 17.2734 23.1404 17.1842Z" fill="#7C7F98"/>
<path d="M17.498 1.0141C17.1318 0.879813 16.7652 0.745528 16.3789 0.604004C16.6122 1.11218 17.1274 1.20536 17.498 1.0141Z" fill="#7C7F98"/>
</svg>
