<svg width="29" height="29" viewBox="0 0 29 29" fill="none" xmlns="http://www.w3.org/2000/svg">
<path d="M9.78223 1.11538L13.7129 9.26627L11.966 0.514793L10.6557 0L9.78223 1.11538Z" fill="#7C7F98"/>
<path d="M26.8223 5.11914L19.9502 11.1007L28.0187 7.0114L28.1565 5.63191L26.8223 5.11914Z" fill="#7C7F98"/>
<path d="M28.2964 21.8086L20.2651 17.437L26.8787 23.5471L28.2487 23.2151L28.2964 21.8086Z" fill="#7C7F98"/>
<path d="M12.0713 28.0117L13.6852 19.1331L9.93799 27.2561L10.701 28.4223L12.0713 28.0117Z" fill="#7C7F98"/>
<path d="M1.07883 15.5993L10.1868 14.4554L1.17448 13.3738L0.27002 14.4378L1.07883 15.5993Z" fill="#7C7F98"/>
<path d="M8.55957 8.57988L11.7041 10.6391L9.52041 7.55029L8.55969 7.72182L8.55957 8.57988Z" fill="#7C7F98"/>
<path d="M14.8301 5.58414L15.3639 9.25915L16.2519 5.60122L15.4813 5.01221L14.8301 5.58414Z" fill="#7C7F98"/>
<path d="M19.4042 6.29201L18.1719 9.80137L20.6613 6.94445L20.2492 6.07495L19.4042 6.29201Z" fill="#7C7F98"/>
<path d="M24.5317 13.6316L20.7886 14.1442L24.5097 15.0281L25.1118 14.2731L24.5317 13.6316Z" fill="#7C7F98"/>
<path d="M19.0242 22.3062L17.063 19.1331L17.71 22.8394L18.6542 23.0836L19.0242 22.3062Z" fill="#7C7F98"/>
<path d="M16.1974 23.1301L15.5303 19.4763L14.7759 23.1631L15.5674 23.7247L16.1974 23.1301Z" fill="#7C7F98"/>
<path d="M10.6994 21.8444L12.2859 18.4751L9.51562 21.0705L9.83628 21.9765L10.6994 21.8444Z" fill="#7C7F98"/>
<path d="M8.3577 19.8707L11.1938 17.4172L7.5926 18.6934L7.51367 19.6496L8.3577 19.8707Z" fill="#7C7F98"/>
<path d="M7.1015 17.5976L10.5011 15.9758L6.68379 16.2624L6.34814 17.1631L7.1015 17.5976Z" fill="#7C7F98"/>
</svg>
