<svg width="26" height="26" viewBox="0 0 26 26" fill="none" xmlns="http://www.w3.org/2000/svg">
<path d="M11.7359 25.8589C8.24081 25.1261 4.91399 22.7374 2.74511 19.4034C1.79269 17.9452 1.23565 16.1792 1.01576 13.9292C0.971632 13.4825 0.942383 10.5149 0.942383 6.58744V0H25.0573L25.0281 6.94665C25.006 13.0066 24.984 13.9811 24.8816 14.6553C24.6178 16.2967 24.178 17.711 23.6359 18.6855C21.6356 22.2686 17.8985 25.112 14.2053 25.8664C13.3185 26.0493 12.615 26.0421 11.7359 25.8589Z" fill="#7C7F98"/>
<path d="M11.7359 25.8589C8.24081 25.1261 4.91399 22.7374 2.74511 19.4034C1.79269 17.9452 1.23565 16.1792 1.01576 13.9292C0.971632 13.4825 0.942383 10.5149 0.942383 6.58744V0H25.0573L25.0281 6.94665C25.006 13.0066 24.984 13.9811 24.8816 14.6553C24.6178 16.2967 24.178 17.711 23.6359 18.6855C21.6356 22.2686 17.8985 25.112 14.2053 25.8664C13.3185 26.0493 12.615 26.0421 11.7359 25.8589ZM14.0221 25.0894C16.8139 24.5619 19.9209 22.5029 21.8919 19.8796C23.1522 18.2015 23.7018 16.912 24.0687 14.7136C24.186 14.0396 24.2006 13.2408 24.2227 7.37873L24.2519 0.805918H1.67517V6.28699C1.67517 9.29873 1.71135 12.3176 1.74856 12.9917C1.88788 15.2193 2.21015 16.6261 2.92087 18.0625C4.49628 21.2577 8.05017 24.1445 11.4214 24.9799C12.6591 25.2873 12.9083 25.2947 14.0221 25.0894Z" fill="white"/>
<path d="M12.0834 22.0923C10.4054 21.7259 8.79327 20.8099 7.38644 19.4177C5.85517 17.9083 5.04899 16.4209 4.71185 14.5083C4.58741 13.8268 4.45527 10.4777 4.55071 10.4777C4.57278 10.4777 7.26944 12.4708 10.5375 14.9109C14.5676 17.9152 16.5243 19.3366 16.6046 19.3074C16.678 19.2853 16.9125 19.1096 17.1321 18.9117C17.4985 18.582 17.5206 18.5379 17.4105 18.4501C17.3371 18.3988 14.4134 16.2153 10.9108 13.5921L4.53583 8.82942L4.52865 6.28645V3.73682H21.3821V7.99374C21.3821 11.3939 21.3601 12.2363 21.2941 12.1778C21.2428 12.1416 19.096 10.5364 16.524 8.61671L11.8489 5.12183L10.8523 5.1439L9.84858 5.16597L15.586 9.44521L21.3234 13.7245L21.272 14.1345C21.0155 16.2887 20.2021 17.8349 18.4217 19.5422C17.0513 20.8684 15.4541 21.7552 13.8199 22.0923C13.2047 22.2242 12.7064 22.2242 12.0834 22.0923Z" fill="white"/>
</svg>
