<svg width="22" height="20" viewBox="0 0 22 20" fill="none" xmlns="http://www.w3.org/2000/svg">
<path d="M3.24561 0.128471C3.33654 0.0462889 3.4608 0 3.59051 0H21.5154C21.9509 0 22.1645 0.471442 21.8505 0.739546L18.5619 3.54683C18.4718 3.62372 18.3517 3.66667 18.2268 3.66667H0.484595C0.0557262 3.66667 -0.160946 3.20749 0.139698 2.93575L3.24561 0.128471Z" fill="#7C7F98"/>
<path d="M0.156672 8.20516C-0.165328 7.89676 0.042184 7.33325 0.477753 7.33325H18.1027C18.2214 7.33325 18.3359 7.37986 18.4238 7.46396L21.8433 10.7391C22.1653 11.0475 21.9578 11.611 21.5222 11.611H3.89732C3.77855 11.611 3.66405 11.5644 3.57625 11.4803L0.156672 8.20516Z" fill="#7C7F98"/>
<path d="M3.24561 16.0174C3.33654 15.9352 3.4608 15.8889 3.59051 15.8889H21.5154C21.9509 15.8889 22.1645 16.3604 21.8505 16.6285L18.5619 19.4357C18.4718 19.5126 18.3517 19.5556 18.2268 19.5556H0.484595C0.0557262 19.5556 -0.160946 19.0964 0.139698 18.8247L3.24561 16.0174Z" fill="#7C7F98"/>
</svg>
