<svg width="23" height="29" viewBox="0 0 23 29" fill="none" xmlns="http://www.w3.org/2000/svg">
<path d="M10.5721 18.0487C14.784 18.0487 18.1984 14.8198 18.1984 10.8368C18.1984 6.85385 14.784 3.625 10.5721 3.625C6.36022 3.625 2.9458 6.85385 2.9458 10.8368C2.9458 14.8198 6.36022 18.0487 10.5721 18.0487Z" stroke="#7C7F98" stroke-width="3"/>
<path d="M21.3051 5.49481C22.2411 5.49481 22.9998 4.77729 22.9998 3.89218C22.9998 3.00707 22.2411 2.28955 21.3051 2.28955C20.3691 2.28955 19.6104 3.00707 19.6104 3.89218C19.6104 4.77729 20.3691 5.49481 21.3051 5.49481Z" fill="#7C7F98"/>
<path d="M10.6641 26.4916C10.1351 27.0336 10.1708 27.8785 10.7439 28.3788C11.3171 28.8791 12.2105 28.8453 12.7396 28.3033L10.6641 26.4916ZM19.5185 21.3586C20.0476 20.8166 20.0119 19.9717 19.4387 19.4714C18.8656 18.9711 17.9721 19.0049 17.443 19.5469L19.5185 21.3586ZM12.7396 28.3033L19.5185 21.3586L17.443 19.5469L10.6641 26.4916L12.7396 28.3033Z" fill="#7C7F98"/>
</svg>
