<svg width="45" height="59" viewBox="0 0 45 59" fill="none" xmlns="http://www.w3.org/2000/svg">
<path fill-rule="evenodd" clip-rule="evenodd" d="M41.4472 7.08C43.4092 7.08 44.9998 5.49509 44.9998 3.54C44.9998 1.58491 43.4092 0 41.4472 0C39.4851 0 37.8945 1.58491 37.8945 3.54C37.8945 5.49509 39.4851 7.08 41.4472 7.08ZM18.9478 5.4502C11.4908 5.4502 5.46094 11.4714 5.46094 18.8802C5.46094 26.289 11.4908 32.3102 18.9478 32.3102C26.4048 32.3102 32.4346 26.289 32.4346 18.8802C32.4346 11.4714 26.4048 5.4502 18.9478 5.4502ZM0.460938 18.8802C0.460938 8.6932 8.74618 0.450195 18.9478 0.450195C29.1494 0.450195 37.4346 8.6932 37.4346 18.8802C37.4346 29.0672 29.1494 37.3102 18.9478 37.3102C8.74618 37.3102 0.460938 29.0672 0.460938 18.8802ZM19.308 57.6276C18.1065 56.5225 18.0316 54.6562 19.1406 53.459L33.3512 38.119C34.4602 36.9218 36.3331 36.8472 37.5346 37.9523C38.7361 39.0574 38.811 40.9236 37.7019 42.1209L23.4914 57.4609C22.3824 58.6581 20.5095 58.7327 19.308 57.6276Z" fill="#828288"/>
</svg>
