<svg width="20" height="20" viewBox="0 0 20 20" fill="none" xmlns="http://www.w3.org/2000/svg">
<path d="M19.5455 7.72726C19.7967 7.72726 20 7.52395 20 7.2727C20 7.02145 19.7967 6.81819 19.5455 6.81819H18.1818V4.99999H19.5455C19.7967 4.99999 20 4.79668 20 4.54543C20 4.29418 19.7967 4.09091 19.5455 4.09091H18.1818V3.63635C18.1818 2.63361 17.3664 1.81815 16.3636 1.81815H15.9091V0.454517C15.9091 0.20331 15.7058 0 15.4546 0C15.2033 0 15 0.20331 15 0.45456V1.8182H13.1818V0.45456C13.1818 0.20331 12.9785 0 12.7273 0C12.4761 0 12.2727 0.20331 12.2727 0.45456V1.8182H10.4545V0.45456C10.4545 0.20331 10.2512 0 10 0C9.74881 0 9.54546 0.20331 9.54546 0.45456V1.8182H7.72726V0.45456C7.72726 0.20331 7.52395 0 7.27275 0C7.02154 0 6.81819 0.20331 6.81819 0.45456V1.8182H4.99999V0.45456C4.99999 0.20331 4.79668 0 4.54547 0C4.29426 0 4.09091 0.20331 4.09091 0.45456V1.8182H3.63635C2.63361 1.8182 1.81815 2.63361 1.81815 3.63639V4.09091H0.454517C0.20331 4.09091 0 4.29422 0 4.54547C0 4.79672 0.20331 5.00003 0.45456 5.00003H1.8182V6.81819H0.45456C0.20331 6.81819 0 7.0215 0 7.27275C0 7.524 0.20331 7.72731 0.45456 7.72731H1.8182V9.54546H0.45456C0.20331 9.54546 0 9.74877 0 10C0 10.2513 0.20331 10.4546 0.45456 10.4546H1.8182V12.2727H0.45456C0.20331 12.2727 0 12.476 0 12.7273C0 12.9785 0.20331 13.1819 0.45456 13.1819H1.8182V15H0.45456C0.20331 15 0 15.2033 0 15.4546C0 15.7058 0.20331 15.9091 0.45456 15.9091H1.8182V16.3636C1.8182 17.3664 2.63361 18.1818 3.63639 18.1818H4.09091V19.5455C4.09091 19.7967 4.29422 20 4.54547 20C4.79672 20 5.00003 19.7967 5.00003 19.5455V18.1818H6.81819V19.5455C6.81819 19.7967 7.0215 20 7.27275 20C7.524 20 7.72731 19.7967 7.72731 19.5455V18.1818H9.54546V19.5455C9.54546 19.7967 9.74877 20 10 20C10.2513 20 10.4546 19.7967 10.4546 19.5455V18.1818H12.2727V19.5455C12.2727 19.7967 12.476 20 12.7273 20C12.9785 20 13.1819 19.7967 13.1819 19.5455V18.1818H15V19.5455C15 19.7967 15.2033 20 15.4546 20C15.7058 20 15.9091 19.7967 15.9091 19.5455V18.1818H16.3636C17.3664 18.1818 18.1818 17.3664 18.1818 16.3636V15.9091H19.5455C19.7967 15.9091 20 15.7058 20 15.4545C20 15.2033 19.7967 15 19.5455 15H18.1818V13.1818H19.5455C19.7967 13.1818 20 12.9785 20 12.7272C20 12.476 19.7967 12.2727 19.5455 12.2727H18.1818V10.4545H19.5455C19.7967 10.4545 20 10.2512 20 9.99998C20 9.74873 19.7967 9.54546 19.5455 9.54546H18.1818V7.72726H19.5455ZM16.3636 15.9091C16.3636 16.1603 16.1603 16.3636 15.9091 16.3636H4.09091C3.83966 16.3636 3.63635 16.1603 3.63635 15.9091V4.09091C3.63635 3.83966 3.83966 3.63635 4.09091 3.63635H15.9091C16.1603 3.63635 16.3636 3.83966 16.3636 4.09091V15.9091Z" fill="white"/>
<path d="M15.455 4.54553H4.5459V15.4546H15.455V4.54553Z" fill="white"/>
</svg>
