<svg width="18" height="20" viewBox="0 0 18 20" fill="none" xmlns="http://www.w3.org/2000/svg">
<path d="M17.239 4.62476C17.2176 4.51436 17.1631 4.41308 17.0828 4.33436L12.894 0.257762C12.7929 0.161266 12.6597 0.105621 12.52 0.101562H4.6C4.45413 0.101563 4.31424 0.159509 4.21109 0.262654C4.10795 0.365799 4.05 0.505693 4.05 0.651562V3.40156H1.3C1.15413 3.40156 1.01424 3.45951 0.911091 3.56265C0.807946 3.6658 0.75 3.80569 0.75 3.95156V19.3516C0.75 19.4974 0.807946 19.6373 0.911091 19.7405C1.01424 19.8436 1.15413 19.9016 1.3 19.9016H13.4C13.5459 19.9016 13.6858 19.8436 13.7889 19.7405C13.8921 19.6373 13.95 19.4974 13.95 19.3516V16.6016H16.7C16.8459 16.6016 16.9858 16.5436 17.0889 16.4405C17.1921 16.3373 17.25 16.1974 17.25 16.0516V4.72156C17.2493 4.68903 17.2456 4.65662 17.239 4.62476ZM13.059 1.95396L15.347 4.17816H13.0612L13.059 1.95396ZM12.85 18.8016H1.85V4.50156H4.05V16.0516C4.05 16.1974 4.10795 16.3373 4.21109 16.4405C4.31424 16.5436 4.45413 16.6016 4.6 16.6016H12.85V18.8016ZM5.15 15.5016V1.20156H11.97V4.72156C11.97 4.86743 12.0279 5.00733 12.1311 5.11047C12.2342 5.21362 12.3741 5.27156 12.52 5.27156H16.15V15.5016H5.15Z" fill="#AEBDF6"/>
</svg>
