<svg width="29" height="29" viewBox="0 0 29 29" fill="none" xmlns="http://www.w3.org/2000/svg">
<path d="M0.893066 6.53782V22.4275C0.893066 25.5473 3.42215 28.0764 6.54197 28.0764H22.4317C25.5515 28.0764 28.0806 25.5473 28.0806 22.4275V6.53782C28.0806 3.418 25.5515 0.888916 22.4317 0.888916H6.54197C3.42215 0.888916 0.893066 3.418 0.893066 6.53782ZM17.3667 22.1859C10.6609 24.4996 4.46989 18.3086 6.78358 11.6028C7.56316 9.3427 9.34668 7.55901 11.6068 6.77943C18.3127 4.46574 24.5037 10.6568 22.1901 17.3627C21.4105 19.6228 19.627 21.4063 17.3667 22.1859ZM23.9206 6.2617C23.8139 6.82042 23.3516 7.14549 22.8734 7.14549C22.5823 7.14549 22.2856 7.02535 22.0585 6.76466C22.0384 6.7416 22.0196 6.71687 22.003 6.69115C21.7686 6.33272 21.7613 5.90692 21.9606 5.5616C22.1016 5.31717 22.3293 5.1426 22.6019 5.06959C22.8742 4.99625 23.159 5.03391 23.4031 5.17513C23.7486 5.37426 23.955 5.74679 23.9314 6.17392C23.9298 6.20312 23.9263 6.23283 23.9206 6.2617Z" fill="#A3B5F9"/>
<path d="M14.4864 7.8775C10.8443 7.8775 7.88165 10.8402 7.88165 14.4822C7.88165 18.1243 10.8443 21.0869 14.4864 21.0869C18.1284 21.0869 21.0911 18.1243 21.0911 14.4822C21.0911 10.8402 18.1284 7.8775 14.4864 7.8775Z" fill="#A3B5F9"/>
</svg>
