<svg width="17" height="17" viewBox="0 0 17 17" fill="none" xmlns="http://www.w3.org/2000/svg">
<path d="M0.509731 7.46875C0.231987 7.46875 0.00683594 7.69393 0.00683594 7.97165V15.358C0.00683594 15.6357 0.23202 15.8609 0.509731 15.8609H3.53962V7.46875H0.509731Z" fill="white"/>
<path d="M17.2962 10.2461C17.2962 9.60768 16.9531 9.04787 16.4417 8.74127C16.6377 8.45835 16.7526 8.11513 16.7526 7.74568C16.7526 6.77903 15.9661 5.99258 14.9995 5.99258H11.2987C11.4122 5.4786 11.5673 4.70732 11.6753 3.89992C11.9564 1.79879 11.7643 0.633519 11.0708 0.23279C10.6384 -0.0169977 10.1722 -0.0676658 9.75811 0.089983C9.4382 0.211839 9.00616 0.511431 8.75996 1.24672L7.7873 3.79343C7.2942 5.01123 5.78415 6.28972 4.84766 6.99665V16.0836C6.58332 16.6918 8.39449 17 10.2422 17H14.2746C15.2413 17 16.0277 16.2136 16.0277 15.2469C16.0277 14.9084 15.9313 14.592 15.7644 14.3238C16.3488 14.0391 16.7525 13.439 16.7525 12.7465C16.7525 12.377 16.6376 12.0339 16.4417 11.7509C16.9531 11.4443 17.2962 10.8845 17.2962 10.2461Z" fill="white"/>
</svg>
