<svg width="18" height="18" viewBox="0 0 18 18" fill="none" xmlns="http://www.w3.org/2000/svg">
<path fill-rule="evenodd" clip-rule="evenodd" d="M3.09091 1H1V2.27273H3.09091V1ZM0 0V3.27273H4.09091V0H0Z" fill="#4C4C4E"/>
<path fill-rule="evenodd" clip-rule="evenodd" d="M3.09091 10.8183H1V12.091H3.09091V10.8183ZM0 9.81829V13.091H4.09091V9.81829H0Z" fill="#4C4C4E"/>
<path fill-rule="evenodd" clip-rule="evenodd" d="M3.09091 5.90918H1V7.18191H3.09091V5.90918ZM0 4.90918V8.18191H4.09091V4.90918H0Z" fill="#4C4C4E"/>
<path fill-rule="evenodd" clip-rule="evenodd" d="M3.09091 15.7275H1V17.0003H3.09091V15.7275ZM0 14.7275V18.0003H4.09091V14.7275H0Z" fill="#4C4C4E"/>
<path fill-rule="evenodd" clip-rule="evenodd" d="M17.0003 1H6.72754V2.27273H17.0003V1ZM5.72754 0V3.27273H18.0003V0H5.72754Z" fill="#4C4C4E"/>
<path fill-rule="evenodd" clip-rule="evenodd" d="M17.0003 10.8184H6.72754V12.0911H17.0003V10.8184ZM5.72754 9.81836V13.0911H18.0003V9.81836H5.72754Z" fill="#4C4C4E"/>
<path fill-rule="evenodd" clip-rule="evenodd" d="M17.0003 5.90918H6.72754V7.18191H17.0003V5.90918ZM5.72754 4.90918V8.18191H18.0003V4.90918H5.72754Z" fill="#4C4C4E"/>
<path fill-rule="evenodd" clip-rule="evenodd" d="M17.0003 15.7275H6.72754V17.0003H17.0003V15.7275ZM5.72754 14.7275V18.0003H18.0003V14.7275H5.72754Z" fill="#4C4C4E"/>
</svg>
