<svg width="28" height="23" viewBox="0 0 28 23" fill="none" xmlns="http://www.w3.org/2000/svg">
<path d="M25.7658 3.32462L28 1.26362V0.8125H20.2603L14.7443 14.0515L8.46883 0.8125H0.3535V1.26362L2.96333 4.29325C3.21767 4.51712 3.35067 4.8445 3.31683 5.17412V17.08C3.39733 17.5086 3.25267 17.9496 2.94 18.2612L0 21.697V22.1425H8.33583V21.6914L5.39583 18.2612C5.07733 17.9485 4.92683 17.5154 4.991 17.08V6.78175L12.3083 22.1481H13.1588L19.4507 6.78175V19.0229C19.4507 19.3457 19.4507 19.4121 19.2313 19.6236L16.968 21.7352V22.1875H27.9487V21.7364L25.767 19.6765C25.5757 19.537 25.4765 19.303 25.5173 19.0757V3.92537C25.4765 3.697 25.5745 3.463 25.7658 3.32462Z" fill="#A3B5F9"/>
</svg>
