<svg width="21" height="21" viewBox="0 0 21 21" fill="none" xmlns="http://www.w3.org/2000/svg">
<path fill-rule="evenodd" clip-rule="evenodd" d="M8.69565 16.7778C12.9252 16.7778 16.3913 13.2666 16.3913 8.88889C16.3913 4.51114 12.9252 1 8.69565 1C4.46607 1 1 4.51114 1 8.88889C1 13.2666 4.46607 16.7778 8.69565 16.7778ZM8.69565 17.7778C13.4981 17.7778 17.3913 13.7981 17.3913 8.88889C17.3913 3.97969 13.4981 0 8.69565 0C3.89318 0 0 3.97969 0 8.88889C0 13.7981 3.89318 17.7778 8.69565 17.7778Z" fill="#747474"/>
<path fill-rule="evenodd" clip-rule="evenodd" d="M19.6432 20.3495L14.4258 15.0162L15.1406 14.3169L20.358 19.6502L19.6432 20.3495Z" fill="#747474"/>
</svg>
