<svg width="33" height="28" viewBox="0 0 33 28" fill="none" xmlns="http://www.w3.org/2000/svg">
<path d="M12.3113 27.1235C10.8842 27.1235 9.41541 27.0114 7.93777 26.7868C5.33524 26.3908 2.70073 25.0708 1.95524 24.6755L0 23.6389L2.11687 22.9638C4.43088 22.226 5.83852 21.7683 7.58102 21.0515C5.83626 20.2321 4.49156 18.7583 3.84426 16.853L3.3518 15.4033L3.75564 15.4631C3.3727 15.0888 3.07032 14.7089 2.83593 14.3635C2.00232 13.1357 1.56097 11.6355 1.65488 10.3498L1.74753 9.08444L2.52877 9.37789C2.1992 8.77438 1.96103 8.12985 1.82105 7.45431C1.4799 5.80685 1.7654 4.0566 2.6252 2.52609L3.30573 1.31466L4.21587 2.37472C7.09435 5.72775 10.7402 7.71676 15.0674 8.29904C14.8906 7.11764 15.0231 5.9775 15.4614 4.95553C15.9717 3.76559 16.8796 2.75656 18.0861 2.03732C19.426 1.23873 21.0509 0.85177 22.6615 0.947718C24.3702 1.04952 25.9216 1.67037 27.1538 2.74435C27.7555 2.59274 28.1989 2.43087 28.7981 2.21212C29.1586 2.08053 29.5675 1.93112 30.0791 1.76022L31.9643 1.13033L30.735 4.53512C30.816 4.52853 30.8996 4.52291 30.987 4.51925L33.0001 4.43087L31.8103 6.00778C31.742 6.09811 31.7247 6.12374 31.7005 6.15914C31.6046 6.29928 31.4852 6.4736 29.852 8.58834C29.4431 9.11788 29.2389 9.80758 29.277 10.5307C29.4217 13.2788 29.074 15.7651 28.2429 17.9204C27.4569 19.9594 26.2389 21.7089 24.623 23.1203C22.6235 24.8664 20.0738 26.062 17.0445 26.6733C15.5586 26.9731 13.9629 27.1235 12.3113 27.1235Z" fill="#A3B5F9"/>
</svg>
