<svg width="15" height="9" viewBox="0 0 15 9" fill="none" xmlns="http://www.w3.org/2000/svg">
<path d="M13.2998 3.79878C13.5131 3.52303 13.6824 3.30178 13.8075 3.13486C14.7082 1.93736 15.0986 1.1724 14.979 0.838886L14.932 0.760778C14.9008 0.713862 14.8199 0.670778 14.6899 0.631781C14.5597 0.592811 14.3931 0.586584 14.1901 0.61231L11.941 0.628174C11.8889 0.622989 11.8368 0.624201 11.7847 0.631781C11.7326 0.639698 11.6988 0.647645 11.6831 0.655224C11.6674 0.66317 11.6545 0.669539 11.6442 0.674723L11.613 0.698167C11.5869 0.713693 11.5583 0.74111 11.5271 0.780277C11.4959 0.819416 11.4697 0.864781 11.449 0.917023C11.2043 1.54696 10.9258 2.13278 10.6133 2.67427C10.4207 2.9971 10.2436 3.27715 10.0824 3.51373C9.92093 3.75085 9.78556 3.92521 9.6762 4.03694C9.5669 4.14886 9.46788 4.23886 9.37946 4.30631C9.29082 4.37425 9.22322 4.40271 9.1765 4.39237C9.12956 4.38203 9.08526 4.37169 9.0437 4.36098C8.97077 4.31426 8.91211 4.25061 8.86798 4.16974C8.82369 4.08923 8.79385 3.98763 8.77812 3.86519C8.7626 3.74293 8.7533 3.63741 8.75088 3.54876C8.74812 3.46031 8.7495 3.33545 8.75485 3.17386C8.76003 3.01243 8.7626 2.90329 8.7626 2.84587C8.7626 2.64823 8.76657 2.43337 8.77438 2.20161C8.78213 1.97002 8.78869 1.78636 8.79385 1.65097C8.79903 1.51577 8.8016 1.37246 8.8016 1.2214C8.8016 1.07068 8.79247 0.952019 8.77412 0.865993C8.75586 0.780277 8.72845 0.696984 8.69224 0.616114C8.65569 0.535582 8.60238 0.472971 8.53202 0.428845C8.46169 0.384522 8.37456 0.349525 8.27045 0.323292C7.99433 0.260681 7.6429 0.227234 7.2161 0.221739C6.24763 0.211736 5.62544 0.27415 5.34953 0.409346C5.2402 0.466772 5.14121 0.544712 5.05276 0.6437C4.95895 0.758383 4.94602 0.820965 5.01379 0.830968C5.32625 0.877884 5.54736 0.989975 5.67754 1.1669L5.72446 1.26054C5.76083 1.32847 5.79724 1.44817 5.83379 1.61991C5.87019 1.79169 5.89364 1.98172 5.90415 2.19003C5.93018 2.57009 5.93018 2.89535 5.90415 3.16628C5.87811 3.43718 5.85345 3.64792 5.83001 3.79864C5.80654 3.9497 5.77137 4.07196 5.72463 4.1656C5.67771 4.25957 5.64652 4.31683 5.63082 4.33768C5.61513 4.35836 5.60219 4.37146 5.59185 4.37667C5.52409 4.40254 5.4539 4.41564 5.38097 4.41564C5.30802 4.41564 5.21954 4.37907 5.1154 4.30612C5.01122 4.23353 4.90311 4.13316 4.79135 4.00555C4.67926 3.87813 4.5532 3.69965 4.41248 3.47045C4.27193 3.24162 4.12602 2.97069 3.97513 2.6584L3.85028 2.4318C3.77217 2.28626 3.6654 2.07397 3.53004 1.79546C3.39467 1.51695 3.27481 1.2476 3.17083 0.987044C3.1291 0.877884 3.06666 0.794591 2.98339 0.737165L2.94442 0.713721C2.91839 0.693011 2.87666 0.670779 2.8194 0.647476C2.76197 0.624032 2.70232 0.607125 2.63971 0.596615L0.499815 0.612141C0.281157 0.612141 0.132858 0.661818 0.0547492 0.760778L0.0235283 0.807524C0.00774885 0.83373 0 0.875461 0 0.932549C0 0.989975 0.0156949 1.06017 0.0469158 1.14329C0.359378 1.87757 0.699115 2.58565 1.06607 3.26749C1.43323 3.9497 1.75209 4.49911 2.02282 4.91557C2.29355 5.33238 2.56946 5.7252 2.85073 6.09492C3.132 6.46464 3.31806 6.70139 3.4091 6.80539C3.50014 6.90973 3.57171 6.98787 3.62381 7.03974L3.81903 7.22735C3.94388 7.35223 4.12755 7.50189 4.36968 7.67642C4.61178 7.85092 4.87978 8.02269 5.17415 8.1917C5.46818 8.36105 5.81065 8.49881 6.20105 8.60575C6.59148 8.71265 6.97154 8.75556 7.34126 8.73454H8.2394C8.42168 8.71902 8.55958 8.66196 8.65327 8.56277L8.68446 8.5238C8.70514 8.49275 8.72481 8.44448 8.74307 8.37945C8.76119 8.31444 8.77055 8.2427 8.77055 8.16476C8.76516 7.94095 8.78227 7.73883 8.82124 7.55948C8.86021 7.37979 8.9045 7.2446 8.95404 7.15321C9.00352 7.06231 9.05937 6.98542 9.12195 6.92281C9.18442 6.8602 9.22854 6.82278 9.25475 6.80967C9.28078 6.79691 9.30169 6.78778 9.31722 6.78226C9.44205 6.74067 9.58913 6.78104 9.75848 6.90331C9.92766 7.02594 10.0865 7.17663 10.235 7.35632C10.3832 7.53601 10.5615 7.73759 10.7699 7.9616C10.978 8.18542 11.1603 8.35201 11.3165 8.46133L11.4728 8.55534C11.5769 8.61758 11.7121 8.67484 11.8789 8.72711C12.0455 8.77901 12.1914 8.79211 12.3162 8.76608L14.3155 8.73469C14.5133 8.73469 14.667 8.70228 14.7764 8.63708C14.8857 8.57241 14.9507 8.50033 14.9716 8.42239C14.9923 8.34428 14.9936 8.25617 14.9755 8.15699C14.9573 8.05817 14.939 7.98919 14.9209 7.95022C14.9026 7.91125 14.8857 7.87848 14.87 7.85261C14.6096 7.38408 14.1124 6.8086 13.3783 6.12659L13.3626 6.11106L13.3549 6.10315L13.3471 6.09554H13.3393C13.006 5.77789 12.7952 5.56439 12.7067 5.45489C12.5454 5.24694 12.5088 5.03603 12.5974 4.82256C12.6595 4.66068 12.8937 4.31959 13.2998 3.79878Z" fill="white"/>
</svg>
