<svg width="21" height="20" viewBox="0 0 21 20" fill="none" xmlns="http://www.w3.org/2000/svg">
<path d="M19.7995 3.28345L19.4726 2.48424L16.2161 5.74078L14.8038 5.38881L14.4519 3.97652L17.7084 0.71998L16.9092 0.39312C16.2713 0.13229 15.5971 0 14.9052 0C13.4929 0 12.1652 0.549947 11.1666 1.54856C10.4486 2.26651 9.95522 3.16824 9.73983 4.15613C9.55643 4.99714 9.58024 5.8661 9.80685 6.69089L1.19779 15.3C0.810791 15.6869 0.597656 16.2015 0.597656 16.7487C0.597656 17.296 0.810791 17.8105 1.19779 18.1975L1.99517 18.9949C2.38216 19.3819 2.8967 19.595 3.44397 19.595C3.99124 19.595 4.50574 19.3819 4.89273 18.9949L13.5017 10.3858C13.958 10.5112 14.4287 10.5746 14.9054 10.5746C16.3176 10.5746 17.6455 10.0246 18.6441 9.02603C20.1548 7.51526 20.6084 5.26115 19.7995 3.28345Z" fill="white"/>
</svg>
