<svg width="29" height="33" viewBox="0 0 29 33" fill="none" xmlns="http://www.w3.org/2000/svg">
<path d="M27.6673 17.0523C27.5079 16.3278 27.1546 15.7202 26.6084 15.2292C26.0619 14.7383 25.4328 14.4498 24.7205 14.3638C22.4617 14.1183 19.055 13.9956 14.5 13.9956C9.94517 13.9956 6.54453 14.1184 4.29779 14.3638C3.57365 14.4498 2.94142 14.7383 2.40104 15.2292C1.86079 15.7204 1.50475 16.328 1.33279 17.0523C1.01364 18.4766 0.854004 20.625 0.854004 23.4978C0.854004 26.4196 1.01364 28.5682 1.33279 29.9433C1.49262 30.6673 1.84563 31.2755 2.39194 31.7662C2.93826 32.2573 3.56746 32.5396 4.27941 32.6133C6.53859 32.8711 9.94555 33.0001 14.5002 33.0001C19.0545 33.0001 22.4621 32.8711 24.7204 32.6133C25.4327 32.5396 26.0586 32.2573 26.599 31.7662C27.1393 31.2755 27.4954 30.6673 27.6672 29.9433C27.9863 28.519 28.1461 26.3706 28.1461 23.4978C28.1461 20.576 27.9862 18.4274 27.6673 17.0523ZM8.64433 18.9126H6.67391V29.3906H4.8325V18.9126H2.89879V17.1816H8.64439L8.64433 18.9126ZM13.6163 29.3906H11.9774V28.396C11.3144 29.1451 10.6881 29.5195 10.0988 29.5195C9.53417 29.5195 9.17807 29.2922 9.03094 28.8381C8.93284 28.5435 8.88349 28.0951 8.88349 27.4937V20.2935H10.5224V26.9966C10.5224 27.3893 10.5286 27.6042 10.541 27.6411C10.5778 27.8989 10.7067 28.0278 10.9278 28.0278C11.2592 28.0278 11.6093 27.77 11.9774 27.2544V20.2935H13.6164L13.6163 29.3906ZM19.8775 26.6651C19.8775 27.5612 19.8224 28.1755 19.7124 28.507C19.5032 29.1818 19.0677 29.5195 18.4048 29.5195C17.8155 29.5195 17.2447 29.1818 16.6919 28.507V29.3908H15.0533V17.1816H16.6919V21.1777C17.2201 20.5151 17.7908 20.1836 18.4048 20.1836C19.0677 20.1836 19.5032 20.5274 19.7124 21.2148C19.8223 21.5339 19.8775 22.1416 19.8775 23.0378V26.6651ZM26.1019 25.1552H22.8057V26.7574C22.8057 27.6045 23.0878 28.0278 23.6527 28.0278C24.0577 28.0278 24.3034 27.8071 24.3893 27.3648C24.4135 27.2421 24.4261 26.8677 24.4261 26.2417H26.1019V26.481C26.1019 27.0827 26.0893 27.4385 26.065 27.5493C26.0284 27.8804 25.8999 28.2119 25.6783 28.5434C25.2363 29.1942 24.5728 29.5195 23.689 29.5195C22.8424 29.5195 22.1793 29.2064 21.7003 28.5805C21.3445 28.1262 21.1666 27.4142 21.1666 26.4443V23.2582C21.1666 22.2884 21.3383 21.5763 21.6817 21.122C22.1608 20.4961 22.8176 20.1831 23.6527 20.1831C24.4754 20.1831 25.1265 20.4961 25.6046 21.122C25.9366 21.5763 26.1019 22.2884 26.1019 23.2582V25.1552Z" fill="#A3B5F9"/>
<path d="M17.5197 21.6747C17.2372 21.6747 16.9612 21.8102 16.6911 22.0799V27.6227C16.9612 27.8927 17.2372 28.0277 17.5197 28.0277C17.9982 28.0277 18.2382 27.6167 18.2382 26.7938V22.9086C18.2382 22.0859 17.9987 21.6747 17.5197 21.6747Z" fill="#A3B5F9"/>
<path d="M23.6335 21.6747C23.0811 21.6747 22.8049 22.0923 22.8049 22.9266V23.7738H24.4621V22.9266C24.4621 22.0919 24.1858 21.6747 23.6335 21.6747Z" fill="#A3B5F9"/>
<path d="M7.57569 7.34766V12.3384H9.4171V7.34766L11.645 0H9.76669L8.51474 4.84325L7.20713 0H5.25523C5.59902 1.03136 5.99801 2.17914 6.45229 3.44373C7.02937 5.13782 7.4036 6.43937 7.57569 7.34766Z" fill="#A3B5F9"/>
<path d="M14.1129 12.4673C14.9601 12.4673 15.6105 12.1542 16.0648 11.5281C16.4087 11.0739 16.5804 10.3495 16.5804 9.35519V6.13238C16.5804 5.15037 16.4083 4.43196 16.0648 3.97769C15.6105 3.35159 14.9601 3.0385 14.1129 3.0385C13.2901 3.0385 12.6455 3.35159 12.1792 3.97769C11.8356 4.43196 11.6637 5.15037 11.6637 6.13238V9.35513C11.6637 10.3371 11.8354 11.0616 12.1792 11.5281C12.6457 12.1542 13.2901 12.4673 14.1129 12.4673ZM13.3209 5.80085C13.3209 4.95371 13.5849 4.53013 14.1129 4.53013C14.6409 4.53013 14.9047 4.95371 14.9047 5.80085V9.66795C14.9047 10.5276 14.6409 10.957 14.1129 10.957C13.5849 10.957 13.3209 10.5274 13.3209 9.66795V5.80085Z" fill="#A3B5F9"/>
<path d="M19.1774 12.4673C19.7916 12.4673 20.424 12.0867 21.0745 11.3253V12.3382H22.7503V3.14902H21.0745V10.1652C20.7061 10.6932 20.3564 10.9569 20.0245 10.9569C19.8034 10.9569 19.6744 10.8219 19.6378 10.5518C19.6255 10.5273 19.6193 10.3122 19.6193 9.90722V3.14902H17.9435V10.4048C17.9435 11.0307 17.993 11.491 18.0909 11.7858C18.2507 12.2401 18.6128 12.4673 19.1774 12.4673Z" fill="#A3B5F9"/>
</svg>
