<svg width="678" height="561" viewBox="0 0 678 561" fill="none" xmlns="http://www.w3.org/2000/svg">
<path opacity="0.1" d="M536.323 41.2705L535.916 40.98L536.323 41.2705C537.495 39.6289 539.533 38.8637 541.488 39.3293C543.443 39.7951 544.933 41.4021 545.259 43.404L551.647 82.5943C551.861 83.9065 551.549 85.2488 550.781 86.3254L522.084 126.529L521.796 126.933L522.197 127.224L562.176 156.233C564.407 157.851 564.917 160.984 563.316 163.227C561.717 165.468 558.615 165.974 556.387 164.357L511.967 132.125L511.673 132.529L511.967 132.125C509.735 130.506 509.225 127.374 510.826 125.131L510.42 124.84L510.827 125.131L541.391 82.3107L541.51 82.1431L541.477 81.9398L537.596 58.1288L537.4 56.9308L536.695 57.9188L483.197 132.868L482.909 133.271L483.311 133.563L568.564 195.423C569.635 196.2 570.357 197.374 570.571 198.686L576.116 232.7C576.442 234.702 575.539 236.699 573.833 237.762C572.128 238.824 569.952 238.746 568.32 237.561L568.026 237.965L568.32 237.561L441.636 145.639L441.228 145.343L440.935 145.753L357.697 262.366L357 263.343L358.185 263.15L380.344 259.538L380.55 259.504L380.671 259.335L443.733 170.986L443.326 170.696L443.733 170.986C445.332 168.745 448.434 168.239 450.663 169.857L540.357 234.94C541.991 236.125 542.758 238.184 542.299 240.157L542.786 240.27L542.299 240.157C541.841 242.129 540.249 243.623 538.269 243.946L499.382 250.284C498.084 250.496 496.753 250.179 495.682 249.402L455.703 220.394L455.295 220.098L455.003 220.508L426.306 260.711C424.706 262.952 421.605 263.457 419.376 261.84C417.146 260.222 416.635 257.089 418.236 254.846L450.121 210.176C451.721 207.936 454.822 207.43 457.051 209.047L499.631 239.944L499.8 240.066L500.005 240.032L523.632 236.181L524.817 235.988L523.845 235.283L449.315 181.203L448.907 180.907L448.614 181.318L387.419 267.05C386.651 268.126 385.489 268.85 384.191 269.061L346.772 275.161C344.791 275.484 342.807 274.572 341.746 272.848C340.685 271.123 340.759 268.927 341.931 267.284L341.524 266.994L341.931 267.284L432.866 139.888L433.154 139.484L432.752 139.192L316.791 55.0511L315.809 54.3383L316.004 55.5362L319.645 77.8686L319.678 78.0718L319.845 78.1928L407.7 141.941C409.93 143.56 410.441 146.692 408.84 148.935L344.457 239.134C343.285 240.776 341.247 241.541 339.292 241.075C337.337 240.61 335.847 239.002 335.52 237.001L329.132 197.811C328.918 196.498 329.231 195.156 329.999 194.079L329.592 193.789L329.999 194.079L358.696 153.876L358.984 153.472L358.583 153.181L318.604 124.172L318.31 124.576L318.604 124.172C316.373 122.553 315.862 119.421 317.464 117.178C319.063 114.937 322.165 114.431 324.393 116.048L368.813 148.28C371.044 149.898 371.555 153.031 369.954 155.274L339.389 198.094L339.269 198.261L339.303 198.465L343.184 222.276L343.379 223.474L344.084 222.486L397.582 147.537L397.871 147.133L397.469 146.842L312.216 84.9816L312.216 84.9816C311.145 84.2048 310.422 83.0312 310.208 81.7188L304.061 44.0074C303.735 42.0056 304.638 40.0086 306.344 38.946C308.049 37.8837 310.225 37.962 311.857 39.1465L312.151 38.7418L311.857 39.1465L438.541 131.069L438.949 131.365L439.242 130.955L522.478 14.3436L523.175 13.3665L521.99 13.5596L503.5 16.5736L503.294 16.6072L503.173 16.7766L440.111 105.125C438.511 107.366 435.41 107.872 433.181 106.255L343.486 41.1718C341.853 39.9868 341.086 37.9276 341.544 35.9548C342.003 33.9826 343.595 32.4889 345.575 32.166L384.462 25.8273C385.76 25.6156 387.091 25.9324 388.162 26.7092L388.455 26.3046L388.162 26.7093L428.141 55.7179L428.549 56.0139L428.841 55.6037L457.538 15.4005C457.538 15.4005 457.538 15.4005 457.538 15.4005C459.138 13.1595 462.239 12.654 464.467 14.2709C466.698 15.8896 467.209 19.0219 465.608 21.2652L433.723 65.9351C432.123 68.176 429.021 68.6815 426.793 67.0647L384.212 36.1681L384.044 36.0458L383.838 36.0793L360.212 39.9306L359.027 40.1237L359.999 40.8287L434.529 94.9081L434.937 95.204L435.23 94.7939L496.425 9.06168L496.018 8.7712L496.425 9.06166C497.193 7.98508 498.355 7.26199 499.653 7.05032L533.404 1.54875C535.384 1.22597 537.368 2.13679 538.429 3.86133C539.49 5.58644 539.417 7.78265 538.244 9.42495L447.311 136.819L447.023 137.223L447.425 137.514L563.386 221.656L564.368 222.369L564.173 221.171L561.135 202.536L561.102 202.333L560.935 202.212L473.08 138.464C470.849 136.845 470.339 133.713 471.94 131.469L536.323 41.2705Z" stroke="white" stroke-opacity="0.54"/>
<rect x="615.883" y="260" width="18.2197" height="18.2197" transform="rotate(45 615.883 260)" fill="#74849C"/>
<rect x="615.883" y="301.483" width="18.2197" height="18.2197" transform="rotate(45 615.883 301.483)" fill="#4A5A76"/>
<rect x="615.883" y="342.967" width="18.2197" height="18.2197" transform="rotate(45 615.883 342.967)" fill="#25354D"/>
<rect x="665.824" y="69" width="16.3991" height="16.3991" transform="rotate(45 665.824 69)" fill="#05CF8F"/>
<rect x="665.824" y="106.338" width="16.3991" height="16.3991" transform="rotate(45 665.824 106.338)" fill="#1C9770"/>
<rect x="665.824" y="143.676" width="16.3991" height="16.3991" transform="rotate(45 665.824 143.676)" fill="#155440"/>
<rect x="532.726" y="500.06" width="10.2883" height="10.2883" transform="rotate(45 532.726 500.06)" fill="#05CF8F"/>
<rect x="532.726" y="523.633" width="10.2883" height="10.2883" transform="rotate(45 532.726 523.633)" fill="#1C9770"/>
<rect x="532.726" y="546.45" width="10.2883" height="10.2883" transform="rotate(45 532.726 546.45)" fill="#155440"/>
<rect x="149.625" y="14" width="10.4238" height="10.4238" transform="rotate(45 149.625 14)" fill="#05CF8F"/>
<rect x="149.625" y="37.7334" width="10.4238" height="10.4238" transform="rotate(45 149.625 37.7334)" fill="#1C9770"/>
<rect x="149.625" y="61.4668" width="10.4238" height="10.4238" transform="rotate(45 149.625 61.4668)" fill="#155440"/>
<rect x="6.3335" y="410" width="8.19188" height="8.19188" transform="rotate(45 6.3335 410)" fill="#05CF8F"/>
<rect x="6.3335" y="428.651" width="8.19188" height="8.19188" transform="rotate(45 6.3335 428.651)" fill="#1C9770"/>
<rect x="6.3335" y="447.303" width="8.19188" height="8.19188" transform="rotate(45 6.3335 447.303)" fill="#155440"/>
<rect x="8.15381" y="130" width="8.89616" height="8.89616" transform="rotate(45 8.15381 130)" fill="#74849C"/>
<rect x="8.15381" y="150.255" width="8.89616" height="8.89616" transform="rotate(45 8.15381 150.255)" fill="#4A5A76"/>
<rect x="8.15381" y="170.511" width="8.89616" height="8.89616" transform="rotate(45 8.15381 170.511)" fill="#25354D"/>
</svg>
