<svg width="126" height="143" viewBox="0 0 126 143" fill="none" xmlns="http://www.w3.org/2000/svg">
<path fill-rule="evenodd" clip-rule="evenodd" d="M125.998 22.8181C125.998 21.6551 125.304 20.6067 124.239 20.1616C123.173 19.7166 121.947 19.9626 121.132 20.7849L80.4243 61.8433C79.3111 62.9662 79.3111 64.7867 80.4243 65.9096L120.297 106.126V115.981L67.6688 62.8988L125.163 4.90908C125.978 4.08673 126.222 2.84997 125.781 1.77552C125.34 0.701071 124.3 0.000507759 123.147 0.000507759H105.313C104.557 0.000507759 103.832 0.303448 103.298 0.842686L64.6059 39.8679L30.7809 5.75127H43.2651L62.59 25.2428C63.7033 26.3656 65.5083 26.3656 66.6218 25.2428L86.7817 4.90908C87.895 3.78617 87.895 1.96559 86.7817 0.842686C85.6684 -0.280218 83.8634 -0.280218 82.7499 0.842686L64.6059 19.1432L46.4617 0.842686C45.9272 0.303448 45.202 0.000507759 44.4461 0.000507759H23.8986C22.7454 0.000507759 21.7059 0.701071 21.2647 1.77552C20.8234 2.84997 21.0673 4.08673 21.8826 4.90908L62.59 45.9674C63.7033 47.0903 65.5083 47.0903 66.6218 45.9674L106.494 5.75127H116.265L63.6372 58.8325L6.14266 0.842262C5.32736 0.0199104 4.10117 -0.226094 3.03589 0.218959C1.97063 0.664012 1.27605 1.71248 1.27605 2.87546V22.8181C1.27605 23.5807 1.5764 24.3121 2.11104 24.8513L40.8027 63.8766L6.97765 97.9932V85.4012L26.3026 65.9096C27.4159 64.7867 27.4159 62.9662 26.3026 61.8433L6.14266 41.5096C5.02937 40.3868 3.22434 40.3868 2.11104 41.5096C0.997725 42.6325 0.997725 44.4531 2.11104 45.5759L20.2551 63.8766L2.11104 82.1769C1.5764 82.7161 1.27605 83.4475 1.27605 84.2102L1.27605 104.935C1.27605 106.098 1.97063 107.146 3.03589 107.591C4.10117 108.036 5.32736 107.79 6.14266 106.968L46.8501 65.9096C47.9634 64.7867 47.9634 62.9662 46.8501 61.8433L6.97765 21.6271V9.81722L59.6057 62.8988L2.11045 120.89C1.29513 121.712 1.05123 122.949 1.49248 124.023C1.93373 125.098 2.97324 125.798 4.12628 125.798H23.8986C24.6545 125.798 25.3797 125.495 25.9142 124.956L64.6059 85.9309L98.431 120.048H85.9466L66.6218 100.556C65.5083 99.4331 63.7033 99.4331 62.59 100.556L42.4302 120.89C41.3169 122.013 41.3169 123.833 42.4302 124.956C43.5435 126.079 45.3485 126.079 46.4617 124.956L64.6059 106.656L82.7499 124.956C83.2847 125.495 84.0098 125.798 84.7658 125.798H105.313C106.467 125.798 107.506 125.098 107.947 124.023C108.389 122.949 108.144 121.712 107.329 120.89L66.6218 79.8313C65.5083 78.7082 63.7033 78.7082 62.59 79.8313L22.7176 120.048H11.0087L63.6372 66.9653L121.132 124.955C121.947 125.778 123.173 126.024 124.239 125.579C125.304 125.134 125.998 124.085 125.998 122.922V104.935C125.998 104.172 125.698 103.441 125.164 102.902L86.4718 63.8766L120.297 29.7599V42.3517L100.972 61.8433C99.8586 62.9662 99.8586 64.7867 100.972 65.9096L121.132 86.2435C122.245 87.3664 124.05 87.3664 125.164 86.2435C126.277 85.1204 126.277 83.2998 125.164 82.1769L107.02 63.8766L125.164 45.5759C125.698 45.0368 125.998 44.3054 125.998 43.5429V22.8181Z" fill="url(#paint0_linear_1_4728)"/>
<path d="M0.201172 143V132.248H9.87796V133.458H1.3942V137.012H8.21363V138.236H1.3942V141.79H9.87796V143H0.201172Z" fill="white"/>
<path d="M13.1035 143V132.248H14.4341V141.792H24.9307V143H13.1035Z" fill="white"/>
<path d="M27.0801 143V134.04C27.0801 133.542 27.2544 133.119 27.6029 132.771C27.9513 132.422 28.3744 132.248 28.8722 132.248H36.04C36.5379 132.248 36.961 132.422 37.3095 132.771C37.6577 133.119 37.8321 133.542 37.8321 134.04V143H36.6226V139.072H28.2898V143H27.0801ZM28.2898 137.863H36.6226V134.04C36.6226 133.881 36.5628 133.746 36.4434 133.637C36.3337 133.517 36.1995 133.458 36.04 133.458H28.8722C28.7129 133.458 28.5734 133.517 28.454 133.637C28.3445 133.746 28.2898 133.881 28.2898 134.04V137.863Z" fill="white"/>
<path d="M42.8505 143C42.3528 143 41.9296 142.826 41.5812 142.477C41.2327 142.129 41.0586 141.706 41.0586 141.208V134.04C41.0586 133.542 41.2327 133.119 41.5812 132.771C41.9296 132.422 42.3528 132.248 42.8505 132.248H50.0187C50.5164 132.248 50.9395 132.422 51.288 132.771C51.6365 133.119 51.8106 133.542 51.8106 134.04V134.473H50.6011V134.04C50.6011 133.881 50.5412 133.746 50.4218 133.637C50.3124 133.517 50.1779 133.458 50.0187 133.458H42.8505C42.6912 133.458 42.5519 133.517 42.4325 133.637C42.3228 133.746 42.2681 133.881 42.2681 134.04V141.208C42.2681 141.367 42.3228 141.507 42.4325 141.626C42.5519 141.736 42.6912 141.79 42.8505 141.79H50.0187C50.1779 141.79 50.3124 141.736 50.4218 141.626C50.5412 141.507 50.6011 141.367 50.6011 141.208V138.55H47.943V137.325H51.8106V141.208C51.8106 141.706 51.6365 142.129 51.288 142.477C50.9395 142.826 50.5164 143 50.0187 143H42.8505Z" fill="white"/>
<path d="M56.1113 143V134.04C56.1113 133.542 56.3029 133.119 56.6862 132.771C57.0695 132.422 57.5349 132.248 58.0824 132.248H65.9674C66.5149 132.248 66.9804 132.422 67.3637 132.771C67.747 133.119 67.9385 133.542 67.9385 134.04V143H66.608V139.072H57.4418V143H56.1113ZM57.4418 137.863H66.608V134.04C66.608 133.881 66.5422 133.746 66.4109 133.637C66.2905 133.517 66.1426 133.458 65.9674 133.458H58.0824C57.9072 133.458 57.754 133.517 57.6226 133.637C57.502 133.746 57.4418 133.881 57.4418 134.04V137.863Z" fill="white"/>
<path d="M70.0879 143V132.248H79.4347C79.9823 132.248 80.4477 132.422 80.831 132.771C81.2143 133.119 81.4058 133.542 81.4058 134.04V136.325C81.4058 136.464 81.3839 136.603 81.3403 136.743C81.3074 136.872 81.2579 136.997 81.1923 137.116C81.4333 137.445 81.6139 137.729 81.7343 137.967C81.8549 138.207 81.9151 138.45 81.9151 138.699V141.208C81.9151 141.706 81.7236 142.129 81.3403 142.477C80.957 142.826 80.4915 143 79.944 143H70.0879ZM72.0592 141.79H79.944C80.1192 141.79 80.2669 141.736 80.3875 141.626C80.5188 141.507 80.5846 141.367 80.5846 141.208V138.699C80.5846 138.54 80.5188 138.406 80.3875 138.296C80.2669 138.177 80.1192 138.117 79.944 138.117H72.0592C71.884 138.117 71.7305 138.177 71.5992 138.296C71.4788 138.406 71.4186 138.54 71.4186 138.699V141.208C71.4186 141.367 71.4788 141.507 71.5992 141.626C71.7305 141.736 71.884 141.79 72.0592 141.79ZM72.0592 136.907H79.4347C79.6099 136.907 79.7578 136.853 79.8782 136.743C79.9986 136.624 80.0588 136.484 80.0588 136.325V134.04C80.0588 133.881 79.9986 133.746 79.8782 133.637C79.7578 133.517 79.6099 133.458 79.4347 133.458H72.0592C71.884 133.458 71.7305 133.517 71.5992 133.637C71.4788 133.746 71.4186 133.881 71.4186 134.04V136.325C71.4186 136.484 71.4788 136.624 71.5992 136.743C71.7305 136.853 71.884 136.907 72.0592 136.907Z" fill="white"/>
<path d="M84.0664 143V134.04C84.0664 133.542 84.2579 133.119 84.6412 132.771C85.0246 132.422 85.49 132.248 86.0375 132.248H93.9225C94.47 132.248 94.9354 132.422 95.3188 132.771C95.7021 133.119 95.8936 133.542 95.8936 134.04V143H94.5631V139.072H85.3969V143H84.0664ZM85.3969 137.863H94.5631V134.04C94.5631 133.881 94.4973 133.746 94.366 133.637C94.2456 133.517 94.0977 133.458 93.9225 133.458H86.0375C85.8623 133.458 85.709 133.517 85.5777 133.637C85.4571 133.746 85.3969 133.881 85.3969 134.04V137.863Z" fill="white"/>
<path d="M98.0469 143V132.248H99.3639V141.792H107.724V143H98.0469Z" fill="white"/>
<path d="M114.172 143V142.985L118.745 137.624L114.172 132.263V132.248H115.747L119.548 136.683L123.334 132.248H124.909V132.263L120.335 137.624L124.924 142.985V143H123.334L119.548 138.565L115.747 143H114.172Z" fill="white"/>
<defs>
<linearGradient id="paint0_linear_1_4728" x1="124.006" y1="2.00954" x2="0.222052" y2="124.736" gradientUnits="userSpaceOnUse">
<stop stop-color="#03CF8E"/>
<stop offset="0.479167" stop-color="#4E8AC7"/>
<stop offset="0.890625" stop-color="#9648FD"/>
</linearGradient>
</defs>
</svg>
