<svg width="258" height="63" viewBox="0 0 258 63" fill="none" xmlns="http://www.w3.org/2000/svg">
<path fill-rule="evenodd" clip-rule="evenodd" d="M62.9048 11.4061C62.9048 10.8248 62.5578 10.3007 62.0257 10.0782C61.4934 9.85572 60.8809 9.97869 60.4737 10.3898L40.1376 30.9136C39.5815 31.4749 39.5815 32.385 40.1376 32.9462L60.0565 53.0491V57.9752L33.7654 31.4412L62.4874 2.4539C62.8947 2.04283 63.0165 1.42462 62.7961 0.887532C62.5756 0.350444 62.0563 0.000253814 61.4804 0.000253814H52.5712C52.1936 0.000253814 51.8313 0.151684 51.5643 0.421234L32.2353 19.9287L15.3375 2.87489H21.5742L31.2282 12.6181C31.7844 13.1794 32.6861 13.1794 33.2424 12.6181L43.3135 2.4539C43.8697 1.89259 43.8697 0.98254 43.3135 0.421234C42.7574 -0.140073 41.8556 -0.140073 41.2994 0.421234L32.2353 9.56909L23.1711 0.421234C22.9041 0.151684 22.5418 0.000253814 22.1642 0.000253814H11.8994C11.3233 0.000253814 10.804 0.350444 10.5836 0.887532C10.3631 1.42462 10.485 2.04283 10.8923 2.4539L31.2282 22.9777C31.7844 23.539 32.6861 23.539 33.2424 22.9777L53.1612 2.87489H58.0421L31.7514 29.4086L3.02917 0.421022C2.62187 0.0099526 2.00932 -0.113018 1.47714 0.109451C0.944973 0.33192 0.597986 0.856018 0.597986 1.43736V11.4061C0.597986 11.7873 0.748032 12.1529 1.01512 12.4224L20.3441 31.93L3.4463 48.9839V42.6895L13.1003 32.9462C13.6565 32.385 13.6565 31.4749 13.1003 30.9136L3.02917 20.7494C2.47301 20.1881 1.57128 20.1881 1.01511 20.7494C0.458945 21.3107 0.458945 22.2208 1.01511 22.7821L10.0792 31.93L1.01511 41.0778C0.748031 41.3473 0.597985 41.7129 0.597985 42.0942L0.597983 52.4538C0.597983 53.0351 0.944971 53.5593 1.47714 53.7817C2.00932 54.0042 2.62187 53.8812 3.02917 53.4702L23.3651 32.9462C23.9213 32.385 23.9213 31.4749 23.3651 30.9136L3.4463 10.8107V4.90734L29.7374 31.4412L1.01482 60.4291C0.607517 60.8402 0.485673 61.4585 0.706105 61.9955C0.926538 62.5325 1.44584 62.8828 2.02186 62.8828H11.8994C12.277 62.8828 12.6393 62.7313 12.9063 62.4618L32.2353 42.9543L49.1331 60.0082H42.8963L33.2424 50.2649C32.6861 49.7037 31.7844 49.7037 31.2282 50.2649L21.1571 60.4291C20.601 60.9904 20.601 61.9005 21.1571 62.4618C21.7133 63.023 22.615 63.023 23.1711 62.4618L32.2353 53.3139L41.2994 62.4618C41.5665 62.7313 41.9288 62.8828 42.3064 62.8828H52.5712C53.1473 62.8828 53.6666 62.5325 53.887 61.9955C54.1075 61.4585 53.9856 60.8402 53.5783 60.4291L33.2424 39.9053C32.6861 39.3439 31.7844 39.3439 31.2282 39.9053L11.3094 60.0082H5.46007L31.7514 33.474L60.4737 62.4615C60.8809 62.8727 61.4934 62.9956 62.0257 62.7732C62.5578 62.5507 62.9048 62.0266 62.9048 61.4453V52.4538C62.9048 52.0727 62.7547 51.7071 62.4877 51.4374L43.1587 31.93L60.0565 14.8761V21.1704L50.4025 30.9136C49.8463 31.4749 49.8463 32.385 50.4025 32.9462L60.4737 43.1105C61.0298 43.6718 61.9315 43.6718 62.4877 43.1105C63.0438 42.5491 63.0438 41.6391 62.4877 41.0778L53.4236 31.93L62.4877 22.7821C62.7547 22.5125 62.9048 22.1469 62.9048 21.7658V11.4061Z" fill="white"/>
<path d="M86 38.4199V24.02H100.264V25.64H87.7586V30.3999H97.8108V32.04H87.7586V36.7999H100.264V38.4199H86Z" fill="white"/>
<path d="M104.229 38.4197V24H105.987V36.7997H119.861V38.4197H104.229Z" fill="white"/>
<path d="M122.799 38.4199V26.4201C122.799 25.7535 123.052 25.1869 123.559 24.7202C124.066 24.2534 124.681 24.02 125.404 24.02H135.825C136.549 24.02 137.164 24.2534 137.671 24.7202C138.177 25.1869 138.431 25.7535 138.431 26.4201V38.4199H136.672V33.1598H124.558V38.4199H122.799ZM124.558 31.5398H136.672V26.4201C136.672 26.2069 136.585 26.0268 136.412 25.8802C136.252 25.72 136.057 25.64 135.825 25.64H125.404C125.173 25.64 124.97 25.72 124.796 25.8802C124.637 26.0268 124.558 26.2069 124.558 26.4201V31.5398Z" fill="white"/>
<path d="M145.136 38.4199C144.413 38.4199 143.798 38.1865 143.291 37.7198C142.784 37.253 142.531 36.6865 142.531 36.0198V26.4201C142.531 25.7535 142.784 25.1869 143.291 24.7202C143.798 24.2534 144.413 24.02 145.136 24.02H155.558C156.281 24.02 156.897 24.2534 157.403 24.7202C157.91 25.1869 158.163 25.7535 158.163 26.4201V27H156.404V26.4201C156.404 26.2069 156.318 26.0268 156.144 25.8802C155.985 25.72 155.789 25.64 155.558 25.64H145.136C144.905 25.64 144.702 25.72 144.529 25.8802C144.369 26.0268 144.29 26.2069 144.29 26.4201V36.0198C144.29 36.2331 144.369 36.4199 144.529 36.5799C144.702 36.7265 144.905 36.7999 145.136 36.7999H155.558C155.789 36.7999 155.985 36.7265 156.144 36.5799C156.318 36.4199 156.404 36.2331 156.404 36.0198V32.46H152.54V30.8198H158.163V36.0198C158.163 36.6865 157.91 37.253 157.403 37.7198C156.897 38.1865 156.281 38.4199 155.558 38.4199H145.136Z" fill="white"/>
<path d="M162.229 38.4199V26.4201C162.229 25.7535 162.482 25.1869 162.988 24.7202C163.495 24.2534 164.11 24.02 164.834 24.02H175.255C175.979 24.02 176.594 24.2534 177.1 24.7202C177.607 25.1869 177.86 25.7535 177.86 26.4201V38.4199H176.102V33.1598H163.987V38.4199H162.229ZM163.987 31.5398H176.102V26.4201C176.102 26.2069 176.015 26.0268 175.841 25.8802C175.682 25.72 175.487 25.64 175.255 25.64H164.834C164.602 25.64 164.4 25.72 164.226 25.8802C164.067 26.0268 163.987 26.2069 163.987 26.4201V31.5398Z" fill="white"/>
<path d="M182.025 38.4199V24.02H194.379C195.103 24.02 195.718 24.2534 196.225 24.7202C196.731 25.1869 196.984 25.7535 196.984 26.4201V29.48C196.984 29.6666 196.955 29.8532 196.898 30.0401C196.854 30.2133 196.789 30.3801 196.702 30.54C197.021 30.9801 197.259 31.3601 197.418 31.6799C197.578 32.0001 197.657 32.3267 197.657 32.6599V36.0198C197.657 36.6865 197.404 37.253 196.898 37.7198C196.391 38.1865 195.776 38.4199 195.052 38.4199H182.025ZM184.631 36.7999H195.052C195.284 36.7999 195.479 36.7265 195.638 36.5799C195.812 36.4199 195.899 36.2331 195.899 36.0198V32.6599C195.899 32.4467 195.812 32.2666 195.638 32.12C195.479 31.9601 195.284 31.8798 195.052 31.8798H184.631C184.399 31.8798 184.196 31.9601 184.023 32.12C183.864 32.2666 183.784 32.4467 183.784 32.6599V36.0198C183.784 36.2331 183.864 36.4199 184.023 36.5799C184.196 36.7265 184.399 36.7999 184.631 36.7999ZM184.631 30.2601H194.379C194.611 30.2601 194.806 30.1867 194.965 30.0401C195.124 29.8802 195.204 29.6933 195.204 29.48V26.4201C195.204 26.2069 195.124 26.0268 194.965 25.8802C194.806 25.72 194.611 25.64 194.379 25.64H184.631C184.399 25.64 184.196 25.72 184.023 25.8802C183.864 26.0268 183.784 26.2069 183.784 26.4201V29.48C183.784 29.6933 183.864 29.8802 184.023 30.0401C184.196 30.1867 184.399 30.2601 184.631 30.2601Z" fill="white"/>
<path d="M201.695 38.4199V26.4201C201.695 25.7535 201.948 25.1869 202.455 24.7202C202.962 24.2534 203.577 24.02 204.3 24.02H214.722C215.445 24.02 216.061 24.2534 216.567 24.7202C217.074 25.1869 217.327 25.7535 217.327 26.4201V38.4199H215.569V33.1598H203.454V38.4199H201.695ZM203.454 31.5398H215.569V26.4201C215.569 26.2069 215.482 26.0268 215.308 25.8802C215.149 25.72 214.953 25.64 214.722 25.64H204.3C204.069 25.64 203.866 25.72 203.693 25.8802C203.533 26.0268 203.454 26.2069 203.454 26.4201V31.5398Z" fill="white"/>
<path d="M221.449 38.4197V24H223.208V36.7997H234.369V38.4197H221.449Z" fill="white"/>
<path d="M242.586 38.4199V38.3998L249.142 31.22L242.586 24.0402V24.02H244.844L250.293 29.9601L255.721 24.02H257.979V24.0402L251.422 31.22L258.001 38.3998V38.4199H255.721L250.293 32.4798L244.844 38.4199H242.586Z" fill="white"/>
</svg>
