<svg width="135" height="30" viewBox="0 0 135 30" fill="none" xmlns="http://www.w3.org/2000/svg">
<path fill-rule="evenodd" clip-rule="evenodd" d="M29.9542 5.43148C29.9542 5.15465 29.789 4.90507 29.5356 4.79914C29.2822 4.6932 28.9905 4.75176 28.7966 4.94751L19.1127 14.7208C18.8479 14.988 18.8479 15.4214 19.1127 15.6887L28.5979 25.2615V27.6072L16.0783 14.972L29.7555 1.16853C29.9494 0.972778 30.0074 0.678388 29.9025 0.422634C29.7975 0.166878 29.5502 0.000120864 29.2759 0.000120864H25.0335C24.8537 0.000120864 24.6812 0.0722307 24.554 0.200587L15.3497 9.48988L7.30317 1.36899H10.273L14.8702 6.00862C15.135 6.2759 15.5644 6.2759 15.8293 6.00862L20.6251 1.16853C20.8899 0.901234 20.8899 0.467876 20.6251 0.200587C20.3602 -0.0667012 19.9308 -0.0667012 19.6659 0.200587L15.3497 4.55671L11.0334 0.200587C10.9063 0.0722307 10.7338 0.000120864 10.5539 0.000120864H5.66595C5.39163 0.000120864 5.14435 0.166878 5.03938 0.422634C4.93441 0.678388 4.99243 0.972778 5.18639 1.16853L14.8702 10.9418C15.135 11.2091 15.5644 11.2091 15.8293 10.9418L25.3144 1.36899H27.6387L15.1193 14.0041L1.44204 0.200487C1.24809 0.00473933 0.956398 -0.053818 0.702982 0.0521195C0.449569 0.158057 0.284337 0.407627 0.284337 0.684455V5.43147C0.284337 5.613 0.355787 5.78709 0.48297 5.91543L9.68723 15.2048L1.64068 23.3257V20.3283L6.23784 15.6887C6.50267 15.4214 6.50267 14.988 6.23784 14.7208L1.44204 9.88068C1.1772 9.6134 0.747809 9.6134 0.482969 9.88068C0.218127 10.148 0.218127 10.5813 0.482969 10.8486L4.79922 15.2048L0.482969 19.5609C0.355787 19.6892 0.284336 19.8633 0.284336 20.0448L0.284335 24.978C0.284335 25.2548 0.449568 25.5044 0.702982 25.6104C0.956398 25.7163 1.24809 25.6577 1.44204 25.462L11.1258 15.6887C11.3907 15.4214 11.3907 14.988 11.1258 14.7208L1.64068 5.14797V2.33683L14.1602 14.972L0.48283 28.7758C0.288876 28.9715 0.230854 29.2659 0.335822 29.5217C0.44079 29.7774 0.688076 29.9442 0.962371 29.9442H5.66595C5.84578 29.9442 6.01828 29.872 6.14545 29.7437L15.3497 20.4544L23.3963 28.5753H20.4264L15.8293 23.9357C15.5644 23.6684 15.135 23.6684 14.8702 23.9357L10.0744 28.7758C9.80956 29.0431 9.80956 29.4764 10.0744 29.7437C10.3392 30.011 10.7686 30.011 11.0334 29.7437L15.3497 25.3876L19.6659 29.7437C19.7932 29.872 19.9657 29.9442 20.1455 29.9442H25.0335C25.3078 29.9442 25.5551 29.7774 25.6601 29.5217C25.7651 29.2659 25.707 28.9715 25.5131 28.7758L15.8293 19.0025C15.5644 18.7352 15.135 18.7352 14.8702 19.0025L5.38502 28.5753H2.59962L15.1193 15.94L28.7966 29.7436C28.9905 29.9394 29.2822 29.9979 29.5356 29.892C29.789 29.786 29.9542 29.5365 29.9542 29.2596V24.978C29.9542 24.7965 29.8828 24.6224 29.7556 24.494L20.5513 15.2048L28.5979 7.08385V10.0811L24.0008 14.7208C23.7359 14.988 23.7359 15.4214 24.0008 15.6887L28.7966 20.5288C29.0614 20.7961 29.4908 20.7961 29.7556 20.5288C30.0204 20.2615 30.0204 19.8281 29.7556 19.5609L25.4394 15.2048L29.7556 10.8486C29.8828 10.7203 29.9542 10.5462 29.9542 10.3647V5.43148Z" fill="url(#paint0_linear_222_1493)"/>
<path d="M41 18.9969V11.1272H48.7955V12.0125H41.9611V14.6139H47.4547V15.5102H41.9611V18.1115H48.7955V18.9969H41Z" fill="white"/>
<path d="M50.9619 18.9967V11.1162H51.923V18.1114H59.505V18.9967H50.9619Z" fill="white"/>
<path d="M61.1113 18.9969V12.4389C61.1113 12.0745 61.2498 11.7649 61.5267 11.5098C61.8036 11.2547 62.1398 11.1272 62.5353 11.1272H68.2304C68.6261 11.1272 68.9623 11.2547 69.2392 11.5098C69.5158 11.7649 69.6544 12.0745 69.6544 12.4389V18.9969H68.6933V16.1222H62.0725V18.9969H61.1113ZM62.0725 15.2368H68.6933V12.4389C68.6933 12.3223 68.6458 12.2239 68.551 12.1438C68.4638 12.0562 68.3572 12.0125 68.2304 12.0125H62.5353C62.4087 12.0125 62.2978 12.0562 62.2029 12.1438C62.116 12.2239 62.0725 12.3223 62.0725 12.4389V15.2368Z" fill="white"/>
<path d="M73.3183 18.9969C72.9228 18.9969 72.5866 18.8693 72.3097 18.6142C72.0329 18.3592 71.8945 18.0495 71.8945 17.6852V12.4389C71.8945 12.0745 72.0329 11.7649 72.3097 11.5098C72.5866 11.2547 72.9228 11.1272 73.3183 11.1272H79.0136C79.4091 11.1272 79.7453 11.2547 80.0222 11.5098C80.299 11.7649 80.4374 12.0745 80.4374 12.4389V12.7558H79.4764V12.4389C79.4764 12.3223 79.4288 12.2239 79.334 12.1438C79.247 12.0562 79.1402 12.0125 79.0136 12.0125H73.3183C73.1917 12.0125 73.081 12.0562 72.9861 12.1438C72.899 12.2239 72.8556 12.3223 72.8556 12.4389V17.6852C72.8556 17.8017 72.899 17.9039 72.9861 17.9913C73.081 18.0714 73.1917 18.1115 73.3183 18.1115H79.0136C79.1402 18.1115 79.247 18.0714 79.334 17.9913C79.4288 17.9039 79.4764 17.8017 79.4764 17.6852V15.7397H77.3644V14.8434H80.4374V17.6852C80.4374 18.0495 80.299 18.3592 80.0222 18.6142C79.7453 18.8693 79.4091 18.9969 79.0136 18.9969H73.3183Z" fill="white"/>
<path d="M82.6592 18.9969V12.4389C82.6592 12.0745 82.7975 11.7649 83.0744 11.5098C83.3513 11.2547 83.6874 11.1272 84.0829 11.1272H89.7783C90.1738 11.1272 90.51 11.2547 90.7868 11.5098C91.0637 11.7649 91.202 12.0745 91.202 12.4389V18.9969H90.241V16.1222H83.6202V18.9969H82.6592ZM83.6202 15.2368H90.241V12.4389C90.241 12.3223 90.1935 12.2239 90.0986 12.1438C90.0117 12.0562 89.9048 12.0125 89.7783 12.0125H84.0829C83.9564 12.0125 83.8457 12.0562 83.7508 12.1438C83.6637 12.2239 83.6202 12.3223 83.6202 12.4389V15.2368Z" fill="white"/>
<path d="M93.4785 18.9969V11.1272H100.23C100.625 11.1272 100.962 11.2547 101.238 11.5098C101.515 11.7649 101.654 12.0745 101.654 12.4389V14.1112C101.654 14.2131 101.638 14.3151 101.606 14.4172C101.583 14.5119 101.547 14.603 101.5 14.6904C101.674 14.9309 101.804 15.1386 101.891 15.3134C101.978 15.4884 102.022 15.6669 102.022 15.849V17.6852C102.022 18.0495 101.883 18.3592 101.606 18.6142C101.329 18.8693 100.993 18.9969 100.598 18.9969H93.4785ZM94.9024 18.1115H100.598C100.724 18.1115 100.831 18.0714 100.918 17.9913C101.013 17.9039 101.061 17.8017 101.061 17.6852V15.849C101.061 15.7324 101.013 15.634 100.918 15.5539C100.831 15.4665 100.724 15.4226 100.598 15.4226H94.9024C94.7759 15.4226 94.665 15.4665 94.5701 15.5539C94.4832 15.634 94.4397 15.7324 94.4397 15.849V17.6852C94.4397 17.8017 94.4832 17.9039 94.5701 17.9913C94.665 18.0714 94.7759 18.1115 94.9024 18.1115ZM94.9024 14.5375H100.23C100.356 14.5375 100.463 14.4973 100.55 14.4172C100.637 14.3298 100.681 14.2277 100.681 14.1112V12.4389C100.681 12.3223 100.637 12.2239 100.55 12.1438C100.463 12.0562 100.356 12.0125 100.23 12.0125H94.9024C94.7759 12.0125 94.665 12.0562 94.5701 12.1438C94.4832 12.2239 94.4397 12.3223 94.4397 12.4389V14.1112C94.4397 14.2277 94.4832 14.3298 94.5701 14.4172C94.665 14.4973 94.7759 14.5375 94.9024 14.5375Z" fill="white"/>
<path d="M104.229 18.9969V12.4389C104.229 12.0745 104.367 11.7649 104.644 11.5098C104.921 11.2547 105.257 11.1272 105.652 11.1272H111.348C111.743 11.1272 112.079 11.2547 112.356 11.5098C112.633 11.7649 112.771 12.0745 112.771 12.4389V18.9969H111.81V16.1222H105.19V18.9969H104.229ZM105.19 15.2368H111.81V12.4389C111.81 12.3223 111.763 12.2239 111.668 12.1438C111.581 12.0562 111.474 12.0125 111.348 12.0125H105.652C105.526 12.0125 105.415 12.0562 105.32 12.1438C105.233 12.2239 105.19 12.3223 105.19 12.4389V15.2368Z" fill="white"/>
<path d="M115.024 18.9967V11.1162H115.985V18.1114H122.085V18.9967H115.024Z" fill="white"/>
<path d="M126.576 18.9969V18.9859L130.159 15.062L126.576 11.1382V11.1272H127.81L130.788 14.3735L133.755 11.1272H134.989V11.1382L131.405 15.062L135 18.9859V18.9969H133.755L130.788 15.7506L127.81 18.9969H126.576Z" fill="white"/>
<defs>
<linearGradient id="paint0_linear_222_1493" x1="29.4803" y1="0.478338" x2="0.0157035" y2="29.6732" gradientUnits="userSpaceOnUse">
<stop stop-color="#03CF8E"/>
<stop offset="0.479167" stop-color="#4E8AC7"/>
<stop offset="0.890625" stop-color="#9648FD"/>
</linearGradient>
</defs>
</svg>
