<svg width="110" height="110" viewBox="0 0 110 110" fill="none" xmlns="http://www.w3.org/2000/svg">
<path d="M110 55C110 85.3757 85.3757 110 55 110C24.6243 110 0 85.3757 0 55C0 24.6243 24.6243 0 55 0C85.3757 0 110 24.6243 110 55Z" fill="#181818"/>
<path d="M21.8656 51.397L19 54.2627L56.2531 91.8023L72.0141 75.7548L44.5041 49.3911L46.51 47.3852L43.6444 44.5195L38.7728 49.3911L65.4231 76.0414L55.9666 85.7845L21.8656 51.397Z" fill="#2998FA"/>
<path d="M88.9215 59.1348L91.7871 56.2691L54.2474 19.016L38.4865 35.0635L66.2831 61.4273L63.9906 63.4332L66.8562 66.2988L71.7277 61.7138L45.0774 34.777L54.534 25.0338L88.9215 59.1348Z" fill="white"/>
<path d="M51.382 36.4957L54.5342 39.3613L55.3939 38.5016L82.6173 65.4385L85.7695 62.2863L55.3939 32.7704L51.382 36.4957Z" fill="#2998FA"/>
<path d="M59.1191 74.3221L56.2534 71.4565L55.1072 72.6028L28.4569 45.0928L25.3047 48.245L55.1072 78.334L59.1191 74.3221Z" fill="white"/>
</svg>
