<svg width="151" height="152" viewBox="0 0 151 152" fill="none" xmlns="http://www.w3.org/2000/svg">
<path fill-rule="evenodd" clip-rule="evenodd" d="M151 28.0495C151 26.6536 150.159 25.395 148.869 24.8608C147.58 24.3266 146.095 24.6219 145.108 25.609L95.8242 74.8928C94.4764 76.2406 94.4764 78.4259 95.8242 79.7737L144.097 128.047V139.876L80.3813 76.1597L149.989 6.5527C150.976 5.5656 151.271 4.08107 150.737 2.79138C150.202 1.50168 148.944 0.660766 147.548 0.660766H125.957C125.042 0.660766 124.164 1.0244 123.517 1.67166L76.6732 48.5149L35.7218 7.5636H50.8362L74.2326 30.9599C75.5804 32.3077 77.7657 32.3077 79.1138 30.9599L103.521 6.5527C104.869 5.20482 104.869 3.01952 103.521 1.67166C102.173 0.323801 99.9878 0.323801 98.6397 1.67166L76.6732 23.6383L54.7063 1.67166C54.0591 1.0244 53.1812 0.660766 52.266 0.660766H27.3895C25.9934 0.660766 24.7349 1.50168 24.2007 2.79138C23.6664 4.08107 23.9617 5.5656 24.9488 6.5527L74.2326 55.8364C75.5804 57.1843 77.7657 57.1843 79.1138 55.8364L127.387 7.5636H139.215L75.5004 71.2788L5.89272 1.67115C4.90565 0.684055 3.42113 0.388767 2.13141 0.92298C0.841716 1.45719 0.000798546 2.7157 0.000798546 4.11167V28.0495C0.000798546 28.9649 0.364432 29.8428 1.0117 30.49L47.855 77.3334L6.90362 118.285V103.17L30.3 79.7737C31.6478 78.4259 31.6478 76.2406 30.3 74.8928L5.89272 50.4856C4.54487 49.1378 2.35955 49.1378 1.0117 50.4856C-0.336164 51.8334 -0.336164 54.0187 1.0117 55.3665L22.9784 77.3334L1.0117 99.3C0.364429 99.9472 0.000795715 100.825 0.000795715 101.741L0.000792884 126.617C0.000792884 128.013 0.84171 129.272 2.13141 129.806C3.42113 130.34 4.90565 130.045 5.89272 129.058L55.1765 79.7737C56.5243 78.4259 56.5243 76.2406 55.1765 74.8928L6.90362 26.6199V12.4441L70.6194 76.1597L1.01099 145.768C0.0238984 146.755 -0.271389 148.24 0.262824 149.529C0.797037 150.819 2.05555 151.66 3.45152 151.66H27.3895C28.3047 151.66 29.1826 151.296 29.8298 150.649L76.6732 103.806L117.625 144.757H102.51L79.1138 121.361C77.7657 120.013 75.5804 120.013 74.2326 121.361L49.8254 145.768C48.4776 147.116 48.4776 149.301 49.8254 150.649C51.1732 151.997 53.3585 151.997 54.7063 150.649L76.6732 128.683L98.6397 150.649C99.2872 151.296 100.165 151.66 101.08 151.66H125.957C127.353 151.66 128.612 150.819 129.146 149.529C129.68 148.24 129.385 146.755 128.397 145.768L79.1138 96.4844C77.7657 95.1363 75.5804 95.1363 74.2326 96.4844L25.9597 144.757H11.784L75.5004 81.0409L145.108 150.649C146.095 151.636 147.58 151.931 148.869 151.397C150.159 150.863 151 149.604 151 148.208V126.617C151 125.702 150.636 124.824 149.989 124.176L103.146 77.3334L144.097 36.382V51.4964L120.701 74.8928C119.353 76.2406 119.353 78.4259 120.701 79.7737L145.108 104.181C146.456 105.529 148.641 105.529 149.989 104.181C151.337 102.833 151.337 100.648 149.989 99.3L128.023 77.3334L149.989 55.3665C150.636 54.7193 151 53.8414 151 52.9262V28.0495Z" fill="url(#paint0_linear_1_5436)"/>
<defs>
<linearGradient id="paint0_linear_1_5436" x1="148.588" y1="3.07228" x2="0.000164129" y2="151.66" gradientUnits="userSpaceOnUse">
<stop stop-color="#03CF8E"/>
<stop offset="0.479167" stop-color="#4E8AC7"/>
<stop offset="0.890625" stop-color="#9648FD"/>
</linearGradient>
</defs>
</svg>
