<svg width="438" height="438" viewBox="0 0 438 438" fill="none" xmlns="http://www.w3.org/2000/svg">
<path d="M418.477 369.505V369.298L418.331 369.152L278.307 229.128C274.593 225.414 274.593 219.392 278.307 215.677L421.263 72.7218C423.984 70.0015 428.074 69.1877 431.629 70.6599C435.182 72.1321 437.5 75.6003 437.5 79.4473V151.606C437.5 154.128 436.498 156.548 434.714 158.331L370.997 222.05L370.643 222.403L370.997 222.757L434.714 286.474C438.429 290.189 438.429 296.211 434.714 299.926C431 303.64 424.978 303.64 421.263 299.926L350.466 229.128C346.751 225.414 346.751 219.392 350.466 215.677L418.331 147.812L418.477 147.666V147.459V103.617V102.41L417.624 103.263L298.837 222.05L298.484 222.403L298.837 222.757L434.714 358.633C436.498 360.417 437.5 362.836 437.5 365.359V427.987C437.5 431.834 435.183 435.302 431.629 436.775C428.074 438.246 423.984 437.433 421.264 434.712L219.355 232.804L219.001 232.45L218.648 232.804L33.8277 417.624L32.9742 418.477H34.1813H75.3004H75.5075L75.654 418.331L215.677 278.307C219.391 274.592 225.414 274.592 229.129 278.307L372.084 421.263C374.804 423.983 375.618 428.074 374.146 431.628C372.674 435.182 369.206 437.5 365.358 437.5H293.2C290.678 437.5 288.258 436.497 286.474 434.714L222.757 370.996L222.403 370.642L222.049 370.996L158.331 434.714C154.617 438.428 148.594 438.428 144.88 434.714C141.166 430.999 141.166 424.977 144.88 421.263L215.677 350.466C219.391 346.752 225.414 346.752 229.129 350.466L296.993 418.331L297.139 418.477H297.347H341.189H342.396L341.543 417.624L222.757 298.838L222.403 298.484L222.049 298.838L86.1726 434.714C84.389 436.497 81.9696 437.5 79.4476 437.5H10.0117C6.16474 437.5 2.69649 435.182 1.2243 431.628C-0.247873 428.074 0.565876 423.983 3.2861 421.263L2.93255 420.909L3.28611 421.263L205.197 219.352L205.55 218.999L205.197 218.645L20.3786 33.8277L19.5251 32.9742V34.1813V75.3004V75.5075L19.6715 75.654L159.695 215.677C163.409 219.392 163.409 225.414 159.695 229.128L16.7392 372.084C14.0191 374.804 9.92805 375.618 6.37381 374.146C2.81973 372.674 0.5023 369.205 0.5023 365.359L0.502308 293.2C0.502308 290.677 1.50442 288.258 3.28814 286.474L2.9346 286.121L3.28816 286.474L67.0061 222.757L67.3597 222.403L67.0061 222.05L3.28816 158.331L2.9346 158.685L3.28815 158.331C-0.426282 154.617 -0.426282 148.595 3.28815 144.88C7.00255 141.166 13.0249 141.166 16.7392 144.88L87.5365 215.677C91.2508 219.392 91.2508 225.414 87.5365 229.128L19.6715 296.993L19.5251 297.14V297.347V341.189V342.396L20.3786 341.543L139.165 222.757L139.518 222.403L139.165 222.05L3.28817 86.1727L2.93461 86.5263L3.28814 86.1727C1.50442 84.3892 0.502316 81.9699 0.502316 79.4472V10.0117C0.502316 6.16468 2.81971 2.69648 6.37384 1.2243C9.92804 -0.247879 14.0191 0.565879 16.7392 3.28611L17.0928 2.93256L16.7392 3.28611L218.648 205.194L219.001 205.548L219.355 205.194L404.17 20.3781L405.024 19.5246H403.817H369.506H369.299L369.152 19.671L229.129 159.694C225.414 163.409 219.391 163.408 215.677 159.694L72.7217 16.7387C70.0014 14.0185 69.1877 9.92744 70.6599 6.37331C72.1321 2.81915 75.6002 0.501768 79.4476 0.501768H151.606C154.128 0.501768 156.547 1.50385 158.331 3.28757L158.685 2.93404L158.331 3.28759L222.049 67.0055L222.403 67.3591L222.757 67.0055L286.474 3.28762C290.189 -0.426867 296.211 -0.426815 299.926 3.28758C303.64 7.00201 303.64 13.0243 299.926 16.7387L229.129 87.5358C225.414 91.2501 219.391 91.2501 215.677 87.5358L147.812 19.671L147.666 19.5246H147.459H103.617H102.41L103.263 20.3781L222.049 139.164L222.403 139.518L222.757 139.164L358.633 3.28759L358.28 2.93404L358.633 3.28757C360.417 1.50385 362.836 0.501768 365.358 0.501768H427.987C431.833 0.501768 435.302 2.81913 436.774 6.37327C438.246 9.92745 437.433 14.0185 434.713 16.7387L232.805 218.645L232.452 218.999L232.805 219.352L417.624 404.171L418.477 405.024V403.817V369.505Z" stroke="white" stroke-opacity="0.06"/>
</svg>
