<svg width="88" height="88" viewBox="0 0 88 88" fill="none" xmlns="http://www.w3.org/2000/svg">
<path fill-rule="evenodd" clip-rule="evenodd" d="M87.8681 15.9323C87.8681 15.1203 87.3834 14.3882 86.6401 14.0775C85.8967 13.7667 85.0411 13.9385 84.4722 14.5127L56.0663 43.1809C55.2895 43.9649 55.2895 45.2361 56.0663 46.0201L83.8895 74.1004V80.9812L47.1655 43.9179L87.2851 3.42767C87.854 2.85348 88.0242 1.98994 87.7163 1.23973C87.4083 0.48951 86.683 0.000354533 85.8784 0.000354533H73.4339C72.9064 0.000354533 72.4004 0.211877 72.0274 0.58839L45.0282 27.837L21.425 4.01572H30.1365L43.6215 17.6253C44.3983 18.4093 45.6579 18.4093 46.4349 17.6253L60.5025 3.42767C61.2794 2.64362 61.2794 1.37244 60.5025 0.58839C59.7257 -0.195657 58.4661 -0.195657 57.6891 0.58839L45.0282 13.3664L32.3671 0.58839C31.9941 0.211877 31.4881 0.000354533 30.9606 0.000354533H16.6225C15.8178 0.000354533 15.0924 0.48951 14.7845 1.23973C14.4766 1.98994 14.6468 2.85348 15.2157 3.42767L43.6215 32.0959C44.3983 32.8799 45.6579 32.8799 46.4349 32.0959L74.258 4.01572H81.0758L44.3522 41.0787L4.23233 0.588094C3.66341 0.013902 2.80778 -0.157866 2.06442 0.152884C1.32108 0.463634 0.836398 1.19571 0.836398 2.00773V15.9323C0.836398 16.4648 1.04599 16.9755 1.41906 17.3519L28.4182 44.6006L4.81499 68.4219V59.6298L18.3 46.0201C19.0768 45.2361 19.0768 43.9649 18.3 43.1809L4.23233 28.9833C3.45547 28.1993 2.19592 28.1993 1.41905 28.9833C0.642182 29.7673 0.642182 31.0385 1.41905 31.8225L14.08 44.6006L1.41905 57.3785C1.04598 57.755 0.836396 58.2656 0.836396 58.7982L0.836394 73.2688C0.836394 74.0808 1.32108 74.813 2.06442 75.1237C2.80778 75.4344 3.66341 75.2627 4.23233 74.6885L32.6381 46.0201C33.415 45.2361 33.415 43.9649 32.6381 43.1809L4.81499 15.1007V6.85469L41.539 43.9179L1.41865 84.4089C0.849712 84.9831 0.679517 85.8467 0.987422 86.5969C1.29533 87.347 2.0207 87.8363 2.8253 87.8363H16.6225C17.15 87.8363 17.656 87.6246 18.029 87.2481L45.0282 59.9996L68.6314 83.821H59.9198L46.4349 70.2113C45.6579 69.4273 44.3983 69.4273 43.6215 70.2113L29.5539 84.4089C28.777 85.1929 28.777 86.4641 29.5539 87.2481C30.3307 88.0322 31.5903 88.0322 32.3671 87.2481L45.0282 74.4703L57.6891 87.2481C58.0623 87.6246 58.5683 87.8363 59.0958 87.8363H73.4339C74.2386 87.8363 74.964 87.347 75.2718 86.5969C75.5798 85.8467 75.4095 84.9831 74.8406 84.4089L46.4349 55.7407C45.6579 54.9565 44.3983 54.9565 43.6215 55.7407L15.7984 83.821H7.62788L44.3522 46.7573L84.4722 87.2478C85.0411 87.8221 85.8967 87.9939 86.6401 87.6832C87.3834 87.3723 87.8681 86.6403 87.8681 85.8283V73.2688C87.8681 72.7364 87.6585 72.2257 87.2855 71.8491L60.2863 44.6006L83.8895 20.7793V29.5713L70.4046 43.1809C69.6276 43.9649 69.6276 45.2361 70.4046 46.0201L84.4722 60.2179C85.2491 61.0019 86.5086 61.0019 87.2855 60.2179C88.0623 59.4337 88.0623 58.1625 87.2855 57.3785L74.6245 44.6006L87.2855 31.8225C87.6585 31.4461 87.8681 30.9354 87.8681 30.403V15.9323Z" fill="white"/>
</svg>
