<svg width="64" height="66" viewBox="0 0 64 66" fill="none" xmlns="http://www.w3.org/2000/svg">
<path fill-rule="evenodd" clip-rule="evenodd" d="M64 11.9715C64 11.3614 63.6436 10.8113 63.097 10.5778C62.5503 10.3443 61.9212 10.4734 61.5028 10.9048L40.6142 32.446C40.043 33.0352 40.043 33.9903 40.6142 34.5794L61.0743 55.6789V60.8491L34.0689 32.9998L63.5713 2.57555C63.9897 2.1441 64.1148 1.49524 63.8884 0.931528C63.6619 0.367817 63.1285 0.000266396 62.5369 0.000266396H53.3857C52.9978 0.000266396 52.6257 0.159204 52.3514 0.442115L32.4972 20.9166L15.1404 3.0174H21.5465L31.4628 13.2436C32.0341 13.8327 32.9603 13.8327 33.5317 13.2436L43.8764 2.57555C44.4477 1.98641 44.4477 1.03125 43.8764 0.442115C43.3052 -0.147016 42.379 -0.147016 41.8076 0.442115L32.4972 10.0434L23.1868 0.442115C22.9125 0.159204 22.5404 0.000266396 22.1525 0.000266396H11.6088C11.0171 0.000266396 10.4837 0.367817 10.2572 0.931528C10.0308 1.49524 10.156 2.1441 10.5743 2.57555L31.4628 24.1168C32.0341 24.7059 32.9603 24.7059 33.5317 24.1168L53.9917 3.0174H59.0052L32.0002 30.8664L2.49758 0.441892C2.07921 0.010446 1.45001 -0.11862 0.903379 0.114877C0.356754 0.348373 0.000338457 0.898452 0.000338457 1.50861V11.9715C0.000338457 12.3716 0.154461 12.7553 0.428802 13.0382L20.2829 33.5128L2.92604 51.4121V44.8057L12.8424 34.5794C13.4136 33.9903 13.4136 33.0352 12.8424 32.446L2.49758 21.778C1.9263 21.1889 1.00008 21.1889 0.428801 21.778C-0.14248 22.3671 -0.14248 23.3223 0.428801 23.9114L9.73919 33.5128L0.428801 43.1141C0.15446 43.397 0.000337257 43.7807 0.000337257 44.1808L0.000336057 55.054C0.000336057 55.6642 0.356751 56.2143 0.903379 56.4478C1.45001 56.6812 2.07921 56.5522 2.49758 56.1208L23.3861 34.5794C23.9573 33.9903 23.9573 33.0352 23.3861 32.446L2.92604 11.3466V5.1506L29.9314 32.9998L0.428501 63.4247C0.0101291 63.8561 -0.115026 64.505 0.111396 65.0687C0.337817 65.6324 0.871227 66 1.4629 66H11.6088C11.9967 66 12.3688 65.841 12.6431 65.5581L32.4972 45.0836L49.8541 62.9829H43.4479L33.5317 52.7567C32.9603 52.1675 32.0341 52.1675 31.4628 52.7567L21.118 63.4247C20.5468 64.0138 20.5468 64.969 21.118 65.5581C21.6893 66.1472 22.6155 66.1472 23.1868 65.5581L32.4972 55.9568L41.8076 65.5581C42.082 65.841 42.4541 66 42.842 66H53.3857C53.9774 66 54.5108 65.6324 54.7372 65.0687C54.9637 64.505 54.8385 63.8561 54.4201 63.4247L33.5317 41.8835C32.9603 41.2942 32.0341 41.2942 31.4628 41.8835L11.0028 62.9829H4.99453L32.0002 35.1333L61.5028 65.5578C61.9212 65.9894 62.5503 66.1184 63.097 65.8849C63.6436 65.6514 64 65.1013 64 64.4912V55.054C64 54.654 63.8459 54.2703 63.5716 53.9873L43.7174 33.5128L61.0743 15.6135V22.2198L51.1581 32.446C50.5867 33.0352 50.5867 33.9903 51.1581 34.5794L61.5028 45.2476C62.0741 45.8367 63.0003 45.8367 63.5716 45.2476C64.1428 44.6584 64.1428 43.7032 63.5716 43.1141L54.2612 33.5128L63.5716 23.9114C63.8459 23.6285 64 23.2448 64 22.8448V11.9715Z" fill="white" fill-opacity="0.19"/>
</svg>
