<svg width="81" height="82" viewBox="0 0 81 82" fill="none" xmlns="http://www.w3.org/2000/svg">
<path fill-rule="evenodd" clip-rule="evenodd" d="M77.2971 27.6064L64.7469 40.3118C64.0238 41.0437 64.0238 42.2304 64.7469 42.9623L77.8395 56.2167C78.5625 56.9486 79.7347 56.9486 80.4577 56.2167C81.1807 55.4846 81.1807 54.2979 80.4577 53.566L68.6744 41.6371L80.4577 29.7081C80.8049 29.3566 81 28.8799 81 28.3829V14.8737C81 14.1156 80.5489 13.4322 79.8571 13.1421C79.1652 12.852 78.369 13.0123 77.8395 13.5484L51.4024 40.3118C50.6794 41.0437 50.6794 42.2304 51.4024 42.9623L77.2971 69.1768V75.6004L43.1184 40.9998L80.4574 3.19992C80.9869 2.66388 81.1453 1.85772 80.8588 1.15735C80.5721 0.456984 79.897 0.000330971 79.1482 0.000330971H67.5663C67.0753 0.000330971 66.6044 0.197799 66.2572 0.549294L41.1293 25.9873L19.162 3.74889H27.2697L39.8201 16.4542C40.5431 17.1861 41.7154 17.1861 42.4385 16.4542L55.5311 3.19992C56.2541 2.46796 56.2541 1.28124 55.5311 0.549294C54.8081 -0.182656 53.6359 -0.182656 52.9127 0.549294L41.1293 12.4782L29.3458 0.549294C28.9986 0.197799 28.5277 0.000330971 28.0367 0.000330971H14.6924C13.9435 0.000330971 13.2684 0.456984 12.9818 1.15735C12.6952 1.85772 12.8536 2.66388 13.3831 3.19992L39.8201 29.9633C40.5431 30.6952 41.7154 30.6952 42.4385 29.9633L68.3333 3.74889H74.6784L40.5002 38.3492L3.16099 0.549018C2.63151 0.0129783 1.83517 -0.147377 1.14334 0.142726C0.451517 0.432828 0.000428386 1.11626 0.000428386 1.87433V14.8737C0.000428386 15.3708 0.19549 15.8475 0.542702 16.199L25.6705 41.6371L3.70327 63.8756V55.6677L16.2536 42.9623C16.9766 42.2304 16.9766 41.0437 16.2536 40.3118L3.16099 27.0575C2.43798 26.3256 1.26572 26.3256 0.542701 27.0575C-0.180327 27.7895 -0.180327 28.9762 0.542701 29.7081L12.3262 41.6371L0.542701 53.566C0.195489 53.9174 0.000426868 54.3942 0.000426868 54.8913L0.000425349 68.4005C0.000425349 69.1585 0.451513 69.842 1.14334 70.1321C1.83517 70.4221 2.63151 70.2618 3.16099 69.7258L29.598 42.9623C30.321 42.2304 30.321 41.0437 29.598 40.3118L3.70327 14.0973V6.39923L37.882 40.9998L0.542322 78.8004C0.0128196 79.3364 -0.145579 80.1426 0.140985 80.8429C0.42755 81.5432 1.10265 82 1.85148 82H14.6924C15.1833 82 15.6542 81.8024 16.0014 81.4509L41.1293 56.013L63.0966 78.2515H54.9887L42.4385 65.5461C41.7154 64.8142 40.5431 64.8142 39.8201 65.5461L26.7275 78.8004C26.0045 79.5323 26.0045 80.719 26.7275 81.4509C27.4505 82.1829 28.6228 82.1829 29.3458 81.4509L41.1293 69.5221L52.9127 81.4509C53.26 81.8024 53.731 82 54.2219 82H67.5663C68.3152 82 68.9903 81.5432 69.2768 80.8429C69.5634 80.1426 69.4049 79.3364 68.8755 78.8004L42.4385 52.037C41.7154 51.305 40.5431 51.305 39.8201 52.037L13.9254 78.2515H6.3212L40.5002 43.6505L77.8395 81.4506C78.369 81.9868 79.1652 82.1471 79.8571 81.8571C80.5489 81.5669 81 80.8835 81 80.1254V68.4005C81 67.9035 80.8049 67.4267 80.4577 67.0751L55.3298 41.6371L77.2971 19.3986V27.6064ZM79.7462 67.7777L53.9242 41.6371L78.2971 16.9633V28.0171L65.4583 41.0145C65.12 41.3569 65.12 41.9171 65.4583 42.2595L78.5509 55.514C78.8824 55.8496 79.4148 55.8496 79.7463 55.514C80.0846 55.1713 80.0845 54.6111 79.7463 54.2687L67.2687 41.6371L79.7463 29.0053C79.9073 28.8424 80 28.6186 80 28.3829V14.8737C80 14.5129 79.7855 14.1965 79.4705 14.0643C79.1572 13.933 78.7952 14.0039 78.5509 14.2511L52.1138 41.0145C51.7756 41.3569 51.7756 41.9172 52.1138 42.2596L78.2971 68.7661V78.0358L41.7128 40.9998L79.746 2.49717C79.9922 2.24789 80.0689 1.86786 79.9333 1.53614M79.7462 67.7777C79.9073 67.9409 80 68.1647 80 68.4005V80.1254C80 80.4861 79.7855 80.8027 79.4703 80.9349C79.157 81.0661 78.7951 80.9951 78.551 80.748L40.5002 42.2275L3.92777 79.2515H14.3432L40.5315 52.7398C40.863 52.4042 41.3954 52.404 41.7271 52.7398L68.164 79.5031C68.4104 79.7525 68.487 80.1327 68.3513 80.4641C68.2164 80.7939 67.9035 81 67.5663 81H54.2219C54.0005 81 53.7851 80.911 53.6241 80.7482C53.6242 80.7482 53.6241 80.7481 53.6241 80.7482L41.1293 68.0991L28.6343 80.7482C28.3028 81.0838 27.7705 81.0838 27.439 80.7482C27.1007 80.4058 27.1007 79.8455 27.439 79.5031L40.5315 66.2489C40.863 65.9134 41.3954 65.9132 41.7271 66.2489C41.727 66.2489 41.7271 66.2489 41.7271 66.2489L54.5709 79.2515H65.49L41.1293 54.59L15.29 80.7482C15.1292 80.9109 14.9139 81 14.6924 81H1.85148C1.51442 81 1.20148 80.7941 1.0665 80.4642C0.930813 80.1326 1.00742 79.7525 1.25373 79.5031L39.2876 40.9998L2.70327 3.96392V14.508L28.8866 41.0145C29.2248 41.3569 29.2248 41.9172 28.8866 42.2596L2.44957 69.0231C2.20539 69.2702 1.84321 69.3412 1.52997 69.2099C1.21494 69.0778 1.00043 68.7613 1.00043 68.4005L1.00043 54.8913C1.00043 54.6554 1.0931 54.4317 1.25409 54.2688L13.7318 41.6371L1.25413 29.0053C0.915882 28.6629 0.915867 28.1027 1.25412 27.7603C1.58565 27.4247 2.11805 27.4247 2.44956 27.7603L15.5422 41.0145C15.8804 41.3569 15.8804 41.9172 15.5422 42.2596L2.70327 55.257V66.3109L27.0762 41.6371L1.25413 15.4962C1.09313 15.3333 1.00043 15.1095 1.00043 14.8737V1.87433C1.00043 1.51356 1.21487 1.19709 1.53005 1.06493C1.84318 0.933622 2.20533 1.00452 2.44955 1.25176L40.5002 39.7722L77.0719 2.74889H67.9154L41.7272 29.2605C41.7272 29.2604 41.7271 29.2605 41.7272 29.2605C41.3954 29.5961 40.863 29.5961 40.5315 29.2605L14.0946 2.49717C13.8482 2.24779 13.7716 1.8677 13.9073 1.53606C14.0423 1.20625 14.3551 1.00033 14.6924 1.00033H28.0367C28.2585 1.00033 28.4737 1.08942 28.6343 1.25201L41.1293 13.9012L53.6241 1.25211C53.6241 1.25213 53.6241 1.25209 53.6241 1.25211C53.9558 0.916428 54.4882 0.916492 54.8197 1.25204C55.1579 1.59448 55.1579 2.15473 54.8197 2.49717L41.7272 15.7513C41.7272 15.7513 41.7271 15.7514 41.7272 15.7513C41.3954 16.087 40.863 16.087 40.5315 15.7514L27.6875 2.74889H16.7686L41.1293 27.4103L66.9687 1.25205C67.1292 1.08946 67.3445 1.00033 67.5663 1.00033H79.1482C79.4852 1.00033 79.7982 1.20629 79.9333 1.53614" fill="white" fill-opacity="0.37"/>
</svg>
