<svg width="229" height="231" viewBox="0 0 229 231" fill="none" xmlns="http://www.w3.org/2000/svg">
<path d="M3.42517 0.863416C5.19248 0.124984 7.22734 0.532564 8.58155 1.89863L8.93664 1.54662L8.58155 1.89864L114.145 108.385L114.501 108.743L114.856 108.385L211.483 10.9129L212.328 10.0609H211.128H193.189H192.981L192.834 10.2089L119.625 84.0567C117.777 85.9213 114.781 85.9213 112.933 84.0567L38.1914 8.6624C36.8364 7.29557 36.43 5.23818 37.1642 3.45028C37.8981 1.66303 39.6252 0.500932 41.5377 0.500932H79.2643C80.5183 0.500932 81.722 1.00347 82.6101 1.89939L82.9652 1.5474L82.6101 1.89942L115.924 35.5041L116.279 35.8623L116.634 35.5041L149.948 1.89945C151.797 0.0347422 154.792 0.0347939 156.64 1.89941C158.491 3.76646 158.491 6.79533 156.64 8.6624L119.625 46.0005C117.777 47.8652 114.781 47.8651 112.933 46.0006L77.451 10.2089L77.3043 10.0609H77.0959H54.1741H52.9744L53.819 10.9129L115.924 73.5603L116.279 73.9185L116.634 73.5603L187.675 1.89942C188.563 1.00347 189.767 0.500932 191.021 0.500932H223.765C225.677 0.500932 227.404 1.663 228.138 3.45032C228.872 5.23826 228.466 7.29563 227.111 8.6624L121.548 115.147L121.199 115.499L121.548 115.851L218.176 213.324L219.031 214.187V212.972V194.876V194.67L218.887 194.524L145.678 120.676C143.827 118.809 143.827 115.78 145.678 113.913L220.42 38.5188L220.065 38.1668L220.42 38.5188C221.774 37.1527 223.809 36.7451 225.576 37.4836C227.344 38.2223 228.5 39.9644 228.5 41.9003V79.9567C228.5 81.2256 228 82.4419 227.112 83.3379L193.798 116.943L193.449 117.295L193.798 117.647L227.112 151.251C228.963 153.118 228.963 156.147 227.112 158.015C225.263 159.879 222.268 159.879 220.42 158.015L183.405 120.676L183.05 121.028L183.405 120.676C181.554 118.809 181.554 115.78 183.405 113.913L183.05 113.561L183.405 113.913L218.887 78.1213L219.031 77.9752V77.7693V54.6473V53.4328L218.176 54.2953L156.071 116.943L155.722 117.295L156.071 117.647L227.112 189.307C227.112 189.307 227.112 189.307 227.112 189.307C228 190.204 228.5 191.42 228.5 192.689V225.719C228.5 227.655 227.344 229.397 225.576 230.136C223.809 230.874 221.774 230.467 220.42 229.1L220.065 229.452L220.42 229.1L114.856 122.615L114.501 122.256L114.145 122.615L17.5159 220.088L16.6713 220.94H17.871H39.3694H39.5778L39.7245 220.792L112.933 146.944L112.578 146.592L112.933 146.944C114.781 145.079 117.777 145.079 119.625 146.944L194.367 222.338C195.722 223.705 196.128 225.763 195.394 227.55L195.857 227.74L195.394 227.551C194.66 229.338 192.933 230.5 191.021 230.5H153.294C152.04 230.5 150.836 229.997 149.948 229.101L116.634 195.497L116.279 195.139L115.924 195.497L82.6101 229.101C80.7617 230.966 77.7665 230.966 75.9181 229.101C74.0673 227.234 74.0673 224.205 75.9181 222.338L112.933 185C114.781 183.136 117.777 183.136 119.625 185L155.107 220.792L155.254 220.94H155.462H178.384H179.584L178.739 220.088L116.634 157.441L116.279 157.082L115.924 157.441L44.8835 229.101C43.9953 229.997 42.7915 230.5 41.5377 230.5H5.23442C3.32219 230.5 1.59502 229.338 0.861105 227.55C0.126948 225.763 0.533332 223.705 1.88831 222.338L107.453 115.851L107.802 115.499L107.453 115.147L10.8248 17.6751L9.96974 16.8125V18.0271V39.7132V39.9191L10.1146 40.0652L83.3232 113.913C85.174 115.78 85.174 118.809 83.3232 120.676L8.58156 196.071C7.22737 197.437 5.1925 197.844 3.42513 197.106C1.6572 196.367 0.501202 194.625 0.501202 192.689L0.501207 154.633C0.501207 153.364 1.00106 152.147 1.88937 151.251L35.2031 117.647L35.5521 117.295L35.2031 116.943L1.88939 83.3379C0.0384946 81.4709 0.0384936 78.442 1.88938 76.575C3.73787 74.7105 6.73308 74.7105 8.58155 76.575L45.5965 113.913C47.4474 115.78 47.4474 118.809 45.5965 120.676L10.1146 156.468L9.96974 156.614V156.82V179.942V181.157L10.8248 180.294L72.9298 117.647L73.2788 117.295L72.9298 116.943L1.88939 45.2817L1.88937 45.2817C1.00106 44.3857 0.501211 43.1694 0.501211 41.9003V5.28013C0.501211 3.34427 1.65717 1.60214 3.42517 0.863416ZM3.42517 0.863416L3.2324 0.402068L3.42517 0.863416Z" stroke="white" stroke-opacity="0.37"/>
</svg>
